<?xml version="1.0" standalone="no"?>
<!DOCTYPE svg PUBLIC "-//W3C//DTD SVG 1.1//EN" "http://www.w3.org/Graphics/SVG/1.1/DTD/svg11.dtd" >
<svg xmlns="http://www.w3.org/2000/svg">
<metadata>
Generated by SVGconv.
Copyright   : Copyright 1987-1992 Bitstream Inc. All rights reserved. Partial Copyright  1997, ParaType Inc, ParaType Ltd. All rights reserved.
Designer    : Eric Gill, Tagir Safayev, Vladimir Yefimov, Isabella Chaeva
Foundry     : ParaType Ltd
Foundry URL : http://www.paratype.com
</metadata>
<defs>
<font id="Humanist521BTWeb-Roman" horiz-adv-x="528" >
<font-face units-per-em="1000" ascent="963" descent="320" />
<missing-glyph horiz-adv-x="500" />
<glyph unicode="&#13;" horiz-adv-x="252" />
<glyph unicode="&#32;" horiz-adv-x="252" />
<glyph unicode="&#33;" horiz-adv-x="251" d="M118 212q-8 20 -17 55q-9 35 -16.5 81.5q-7.5 46.5 -12 103.5q-4.5 57 -4.5 120q0 62 13 92q13 30 43 30q30 0 43.5 -28q13.5 -28 13.5 -88q0 -99 -13.5 -193.5q-13.5 -94.5 -36.5 -172.5zM64 53q0 26 17.5 44q17.5 18 43.5 18q26 0 44 -18q18 -18 18 -44q0 -26 -18 -44q-18 -18 -44 -18q-26 0 -43.5 18t-17.5 44z" />
<glyph unicode="&#34;" horiz-adv-x="300" d="M112 430h-68v271h68zM256 430h-68v271l68 0z" />
<glyph unicode="&#35;" horiz-adv-x="769" d="M372 490h125l80 222h80l-78 -222h147l-25 -71h-148l-45 -129h157l-25 -71h-157l-79 -221h-81l79 221h-126l-79 -221h-81l78 221h-151l26 71h151l45 129h-161l25 71h162l79 222h81zM346 419l-45 -129h127l45 129z" />
<glyph unicode="&#36;" horiz-adv-x="505" d="M23 203q110 -96 200 -102l0 209q-196 49 -196 186q0 36 13.5 67q13.5 31 39 55q25.5 24 61.5 39.5q36 15.5 82 19.5l0 74h62v-73q87 -6 161 -59l0 -108q-94 73 -161 76l0 -194q98 -30 147 -80.5q49 -50.5 49 -119.5q0 -81 -49.5 -129.5q-49.5 -48.5 -146.5 -60.5l0 -110h-62v109h-7q-48 0 -94.5 19q-46.5 19 -98.5 54zM285 100q46 3 70.5 25q24.5 22 24.5 59q0 73 -95 102zM223 587q-48 -1 -74.5 -23.5q-26.5 -22.5 -26.5 -60.5q0 -65 101 -92z" />
<glyph unicode="&#37;" horiz-adv-x="959" d="M28 490q0 43 15.5 80q15.5 37 43 64.5q27.5 27.5 64.5 43.5q37 16 80 16q42 0 79.5 -16q37.5 -16 65 -43.5q27.5 -27.5 43.5 -64.5q16 -37 16 -80q0 -42 -16 -79q-16 -37 -43.5 -64.5q-27.5 -27.5 -65 -43.5q-37.5 -16 -79.5 -16q-43 0 -80 16q-37 16 -64.5 43.5q-27.5 27.5 -43 64.5q-15.5 37 -15.5 79zt0 0zM117 491q0 -24 9 -45q9 -21 24 -36.5q15 -15.5 36 -24.5q21 -9 45 -9q24 0 44.5 9q20.5 9 36 24.5q15.5 15.5 24.5 36.5q9 21 9 45q0 24 -9 45q-9 21 -24.5 36q-15.5 15 -36 24q-20.5 9 -44.5 9q-24 0 -45 -9q-21 -9 -36 -24q-15 -15 -24 -36q-9 -21 -9 -45zt0 0zM669 695h82l-463 -707h-80zM523 191q0 43 16 80q16 37 43.5 64.5q27.5 27.5 64.5 43.5q37 16 80 16q42 0 79 -16q37 -16 64.5 -43.5q27.5 -27.5 43.5 -64.5q16 -37 16 -80q0 -42 -16 -79q-16 -37 -43.5 -64.5q-27.5 -27.5 -64.5 -43.5q-37 -16 -79 -16q-43 0 -80 16q-37 16 -64.5 43.5q-27.5 27.5 -43.5 64.5q-16 37 -16 79zt0 0zM612 191q0 -24 9 -45q9 -21 24.5 -36q15.5 -15 36.5 -24q21 -9 45 -9q24 0 44.5 9q20.5 9 36 24q15.5 15 24.5 36q9 21 9 45q0 24 -9 45q-9 21 -24.5 36.5q-15.5 15.5 -36 24.5q-20.5 9 -44.5 9q-24 0 -45 -9q-21 -9 -36.5 -24.5q-15.5 -15.5 -24.5 -36.5t-9 -45z" />
<glyph unicode="&#38;" horiz-adv-x="652" d="M517 0l-82 98q-51 -56 -103 -83q-52 -27 -115 -27q-44 0 -78.5 12.5q-34.5 12.5 -58.5 35.5q-24 23 -37 54.5q-13 31.5 -13 69.5q0 31 10.5 58q10.5 27 32 52q21.5 25 54 49q32.5 24 75.5 49q-41 41 -60.5 81q-19.5 40 -19.5 85q0 36 12.5 65.5q12.5 29.5 35.5 51q23 21.5 55.5 33q32.5 11.5 72.5 11.5q40 0 72.5 -11.5q32.5 -11.5 55.5 -31.5q23 -20 35.5 -48.5q12.5 -28.5 12.5 -61.5q0 -58 -31.5 -102.5q-31.5 -44.5 -97.5 -86.5l100 -116q21 23 39 52q18 29 35 63l102 0q-37 -103 -114 -187l137 -165zM287 416q49 32 73 61q24 29 24 64q0 32 -23 53.5q-23 21.5 -61 21.5q-36 0 -59.5 -21.5q-23.5 -21.5 -23.5 -52.5q0 -23 17 -55.5q17 -32.5 53 -70.5zt0 0zM261 303q-64 -38 -96.5 -70q-32.5 -32 -32.5 -67q0 -37 25 -59.5q25 -22.5 68 -22.5q34 0 70 21q36 21 81 61z" />
<glyph unicode="&#39;" horiz-adv-x="155" d="M112 430h-68v271l68 0z" />
<glyph unicode="&#40;" horiz-adv-x="315" d="M243 -226q-96 112 -142.5 222q-46.5 110 -46.5 234q0 123 50.5 235q50.5 112 152.5 229l55 0q-173 -213 -173 -469q0 -223 161 -451l-57 0z" />
<glyph unicode="&#41;" horiz-adv-x="315" d="M14 -226q162 229 162 451q0 256 -173 469l54 0q102 -117 153 -229q51 -112 51 -235q0 -124 -46.5 -234q-46.5 -110 -142.5 -222z" />
<glyph unicode="&#42;" horiz-adv-x="442" d="M386 612l-138 -106l172 23v-68l-172 23l138 -106l-48 -48l-106 138l23 -172h-68l22 172l-105 -138l-48 48l138 106l-172 -23v68l172 -22l-138 105l48 48l105 -138l-22 172h68l-23 -172l106 138z" />
<glyph unicode="&#43;" horiz-adv-x="833" d="M451 332h258v-68h-258v-264h-69v264h-258v68h258v264l69 0z" />
<glyph unicode="&#44;" horiz-adv-x="252" d="M108 -9q-43 22 -43 60q0 25 16.5 41.5q16.5 16.5 39.5 16.5q29 0 47.5 -24.5q18.5 -24.5 18.5 -68.5q0 -53 -30 -90.5q-30 -37.5 -87 -56.5l-1 18q39 33 39 91l0 13z" />
<glyph unicode="&#45;" horiz-adv-x="338" d="M41 266h256v-81l-256 0z" />
<glyph unicode="&#46;" horiz-adv-x="252" d="M67 51q0 25 17 42q17 17 42 17q25 0 42 -17q17 -17 17 -42q0 -25 -17 -42q-17 -17 -42 -17q-25 0 -42 17t-17 42z" />
<glyph unicode="&#47;" horiz-adv-x="282" d="M-25 -93l236 787h70l-238 -787z" />
<glyph unicode="&#48;" horiz-adv-x="505" d="M28 341q0 85 16.5 150.5q16.5 65.5 46.5 110.5q30 45 71 68.5q41 23.5 90 23.5q49 0 90 -23.5q41 -23.5 71 -68.5q30 -45 46.5 -110.5q16.5 -65.5 16.5 -150.5q0 -85 -16.5 -150.5q-16.5 -65.5 -46.5 -110.5q-30 -45 -71 -68.5q-41 -23.5 -90 -23.5q-49 0 -90 23.5q-41 23.5 -71 68.5q-30 45 -46.5 110.5q-16.5 65.5 -16.5 150.5zt0 0zM126 341q0 -130 33.5 -195q33.5 -65 92.5 -65q59 0 92.5 65q33.5 65 33.5 195q0 130 -33.5 195.5q-33.5 65.5 -92.5 65.5q-59 0 -92.5 -65.5t-33.5 -195.5z" />
<glyph unicode="&#49;" horiz-adv-x="505" d="M203 683h97v-683l-97 0z" />
<glyph unicode="&#50;" horiz-adv-x="505" d="M34 0q66 97 117 159q51 62 77 99q47 67 70.5 121q23.5 54 23.5 98q0 57 -31.5 90.5q-31.5 33.5 -85.5 33.5q-74 0 -153 -84l0 117q83 61 166 61q45 0 82 -15q37 -15 64 -42q27 -27 41.5 -65.5q14.5 -38.5 14.5 -84.5q0 -44 -14 -88.5q-14 -44.5 -41 -92q-27 -47.5 -66 -99q-39 -51.5 -89 -109.5l258 0v-99l-434 0z" />
<glyph unicode="&#51;" horiz-adv-x="505" d="M66 132q81 -42 147 -42q54 0 83.5 29.5q29.5 29.5 29.5 79.5q0 104 -145 113l0 86q66 0 102 30q36 30 36 78q0 43 -33.5 71.5q-33.5 28.5 -91.5 28.5q-27 0 -55 -8.5q-28 -8.5 -60 -22.5l0 88q34 16 66.5 24q32.5 8 65.5 8q47 0 84.5 -13q37.5 -13 64 -37q26.5 -24 41 -57q14.5 -33 14.5 -73q0 -97 -82 -150q47 -23 72 -65q25 -42 25 -98q0 -47 -15.5 -86q-15.5 -39 -44.5 -67.5q-29 -28.5 -69.5 -44.5q-40.5 -16 -90.5 -16q-38 0 -72.5 10q-34.5 10 -71.5 30z" />
<glyph unicode="&#52;" horiz-adv-x="505" d="M301 515l-164 -206h161zM298 228h-292v41l344 425h42v-385h76v-81h-76v-228l-94 0z" />
<glyph unicode="&#53;" horiz-adv-x="505" d="M47 135q39 -24 77.5 -35.5q38.5 -11.5 74.5 -11.5q66 0 103.5 33.5q37.5 33.5 37.5 87.5q0 61 -45 95.5q-45 34.5 -133 34.5q-27 0 -69 -11l12 355h301v-83h-216l-7 -175h15q56 0 101 -15.5q45 -15.5 76 -43.5q31 -28 47.5 -67.5q16.5 -39.5 16.5 -87.5q0 -47 -17.5 -88q-17.5 -41 -49 -71q-31.5 -30 -75.5 -47q-44 -17 -96 -17q-68 0 -154 46z" />
<glyph unicode="&#54;" horiz-adv-x="505" d="M159 369q66 32 113 32q42 0 78 -15.5q36 -15.5 61.5 -42.5q25.5 -27 40 -64.5q14.5 -37.5 14.5 -80.5q0 -45 -16 -83.5q-16 -38.5 -44.5 -66.5q-28.5 -28 -68.5 -43.5q-40 -15.5 -87 -15.5q-48 0 -87 17q-39 17 -67 48.5q-28 31.5 -43.5 76.5q-15.5 45 -15.5 100q0 135 70 252q70 117 210 211l53 -67q-82 -57 -135 -118.5q-53 -61.5 -76 -139.5zt0 0zM142 264q-5 -25 -5 -42q0 -65 33.5 -103.5q33.5 -38.5 87.5 -38.5q49 0 79 31q30 31 30 82q0 52 -31.5 84q-31.5 32 -79.5 32q-66 0 -114 -45z" />
<glyph unicode="&#55;" horiz-adv-x="505" d="M351 594h-291v89h436l-310 -700l-84 38z" />
<glyph unicode="&#56;" horiz-adv-x="505" d="M131 194q0 -49 32.5 -81.5q32.5 -32.5 84.5 -32.5q57 0 90.5 32q33.5 32 33.5 83q0 50 -32.5 79.5q-32.5 29.5 -86.5 29.5q-56 0 -89 -31q-33 -31 -33 -79zt0 0zM364 503q0 47 -30.5 75q-30.5 28 -80.5 28q-50 0 -80 -28.5q-30 -28.5 -30 -73.5q0 -25 9 -45.5q9 -20.5 24 -35.5q15 -15 34.5 -23q19.5 -8 40.5 -8q24 0 44.5 8q20.5 8 35.5 22q15 14 24 34.5q9 20.5 9 46.5zt0 0zM128 353q-38 25 -58 64q-20 39 -20 88q0 41 15 76q15 35 42.5 60.5q27.5 25.5 65.5 39.5q38 14 84 14q43 0 79.5 -14.5q36.5 -14.5 62.5 -40q26 -25.5 41 -60q15 -34.5 15 -74.5q0 -50 -20.5 -90q-20.5 -40 -57.5 -63q47 -17 73.5 -59q26.5 -42 26.5 -99q0 -44 -16.5 -82q-16.5 -38 -46.5 -65.5q-30 -27.5 -71.5 -43.5q-41.5 -16 -90.5 -16q-50 0 -91.5 16q-41.5 16 -71 44q-29.5 28 -46 66q-16.5 38 -16.5 82q0 57 26.5 98.5t74.5 58.5z" />
<glyph unicode="&#57;" horiz-adv-x="505" d="M342 314q-66 -32 -112 -32q-42 0 -78 15.5q-36 15.5 -62 42.5q-26 27 -40.5 64q-14.5 37 -14.5 81q0 45 16 83.5q16 38.5 44.5 66.5q28.5 28 68.5 44q40 16 87 16q48 0 87 -17q39 -17 67 -48.5q28 -31.5 43.5 -76.5q15.5 -45 15.5 -100q0 -136 -70 -253.5q-70 -117.5 -210 -210.5l-53 67q173 118 211 258zt0 0zM359 419q2 11 4 21.5q2 10.5 2 20.5q0 65 -33.5 104q-33.5 39 -87.5 39q-49 0 -79 -31q-30 -31 -30 -82q0 -52 31 -84q31 -32 79 -32q67 0 114 44z" />
<glyph unicode="&#58;" horiz-adv-x="252" d="M67 403q0 25 17 41.5q17 16.5 42 16.5q25 0 42 -16.5q17 -16.5 17 -41.5q0 -25 -17 -42q-17 -17 -42 -17q-25 0 -42 17q-17 17 -17 42zt0 0zM67 50q0 25 17 42q17 17 42 17q25 0 42 -17q17 -17 17 -42q0 -25 -17 -42q-17 -17 -42 -17q-25 0 -42 17t-17 42z" />
<glyph unicode="&#59;" horiz-adv-x="252" d="M108 -9q-43 22 -43 60q0 25 16.5 41.5q16.5 16.5 39.5 16.5q29 0 47.5 -24.5q18.5 -24.5 18.5 -68.5q0 -53 -30 -90.5q-30 -37.5 -87 -56.5l-1 18q39 33 39 91zM68 402q0 25 16.5 42q16.5 17 41.5 17q25 0 42 -17q17 -17 17 -42q0 -25 -17 -42q-17 -17 -42 -17q-25 0 -41.5 17t-16.5 42z" />
<glyph unicode="&#60;" horiz-adv-x="833" d="M231 298l473 -192v-75l-575 236v63l575 236l0 -75z" />
<glyph unicode="&#61;" horiz-adv-x="833" d="M709 361h-585v68h585zM709 167h-585v68l585 0z" />
<glyph unicode="&#62;" horiz-adv-x="833" d="M704 267l-575 -236v75l474 192l-474 193v75l575 -236z" />
<glyph unicode="&#63;" horiz-adv-x="313" d="M43 668q49 27 105 27q32 0 59.5 -11q27.5 -11 47 -31.5q19.5 -20.5 30.5 -48q11 -27.5 11 -60.5q0 -47 -17.5 -83q-17.5 -36 -48.5 -75q-18 -23 -34.5 -42q-16.5 -19 -29.5 -36q-13 -17 -20.5 -34q-7.5 -17 -7.5 -35q0 -16 6 -32l-23 -10q-40 41 -40 91q0 28 10.5 53q10.5 25 27.5 53q13 20 25 38q12 18 21.5 35q9.5 17 15.5 33.5q6 16.5 6 33.5q0 29 -17.5 46.5q-17.5 17.5 -46.5 17.5q-20 0 -44.5 -9.5q-24.5 -9.5 -54.5 -26.5zM200 52q0 -26 -17.5 -43.5q-17.5 -17.5 -43.5 -17.5q-26 0 -43.5 17.5q-17.5 17.5 -17.5 43.5q0 26 17.5 43q17.5 17 43.5 17q26 0 43.5 -17t17.5 -43z" />
<glyph unicode="&#64;" horiz-adv-x="1000" d="M610 347q-8 44 -33.5 67q-25.5 23 -63.5 23q-34 0 -63 -17q-29 -17 -50.5 -46.5q-21.5 -29.5 -33.5 -69.5q-12 -40 -12 -86q0 -52 23.5 -79.5q23.5 -27.5 67.5 -27.5q47 0 84.5 33q37.5 33 51.5 88zM655 473h64l-71 -281q-4 -16 -4 -29q0 -46 49 -46q23 0 49.5 12.5q26.5 12.5 52.5 37.5q38 36 60.5 89.5q22.5 53.5 22.5 115.5q0 62 -24 114.5q-24 52.5 -68 90q-44 37.5 -106 58.5q-62 21 -139 21q-129 0 -223 -56q-94 -56 -145 -146q-51 -90 -51 -200q0 -87 30 -150.5q30 -63.5 94 -112.5q48 -36 113.5 -57q65.5 -21 142.5 -21q83 0 160.5 24q77.5 24 142.5 69l27 -40q-145 -109 -324 -109q-187 0 -307 91q-149 115 -149 307q0 81 25 152.5q25 71.5 74 131.5q71 87 170.5 132q99.5 45 223.5 45q84 0 154.5 -23q70.5 -23 120.5 -61q63 -49 96 -112.5q33 -63.5 33 -138.5q0 -86 -30.5 -154q-30.5 -68 -90.5 -115q-34 -27 -73.5 -41q-39.5 -14 -80.5 -14q-98 0 -98 77v9q-53 -85 -147 -85q-75 0 -114 41.5q-39 41.5 -39 120.5q0 58 18 107.5q18 49.5 49.5 85.5q31.5 36 74 56.5q42.5 20.5 91.5 20.5q83 0 118 -73z" />
<glyph unicode="&#65;" horiz-adv-x="623" d="M274 683h71l300 -683h-101l-88 201h-291l-87 -201h-100zM416 289l-108 246l-105 -246z" />
<glyph unicode="&#66;" horiz-adv-x="579" d="M236 390q147 0 147 109q0 52 -29.5 74q-29.5 22 -90.5 22h-93v-205zM73 683h200q104 0 158.5 -46.5q54.5 -46.5 54.5 -131.5q0 -105 -101 -142q75 -18 115.5 -64.5q40.5 -46.5 40.5 -112.5q0 -42 -15.5 -76q-15.5 -34 -45.5 -58.5q-30 -24.5 -73 -38q-43 -13.5 -97 -13.5h-237zM170 89h130q69 0 103 24q34 24 34 80q0 57 -37.5 82.5q-37.5 25.5 -115.5 25.5l-114 0z" />
<glyph unicode="&#67;" horiz-adv-x="694" d="M655 52q-122 -64 -246 -64q-117 0 -212 61q-77 50 -119 127q-42 77 -42 168q0 69 28 133.5q28 64.5 79 113.5q109 103 273 103q71 0 128 -16.5q57 -16.5 105 -38.5l0 -106q-63 34 -119.5 51.5q-56.5 17.5 -113.5 17.5q-61 0 -112 -20.5q-51 -20.5 -87.5 -55.5q-36.5 -35 -56.5 -82.5q-20 -47.5 -20 -102.5q0 -55 20 -102.5q20 -47.5 56 -82.5q36 -35 85.5 -55q49.5 -20 108.5 -20q119 0 245 81z" />
<glyph unicode="&#68;" horiz-adv-x="741" d="M324 683q69 0 124.5 -12.5q55.5 -12.5 105.5 -46.5q69 -47 107 -120q38 -73 38 -162q0 -89 -38 -162.5q-38 -73.5 -107 -120.5q-48 -33 -104.5 -46q-56.5 -13 -125.5 -13h-251v683zM170 591v-499h154q65 0 115.5 18q50.5 18 85 50.5q34.5 32.5 52.5 78.5q18 46 18 102q0 56 -18 102q-18 46 -52.5 79q-34.5 33 -85 51q-50.5 18 -115.5 18z" />
<glyph unicode="&#69;" horiz-adv-x="544" d="M73 683h411v-88h-314v-206h305v-88h-305v-213h324v-88l-421 0z" />
<glyph unicode="&#70;" horiz-adv-x="503" d="M73 683h389v-88h-292v-201h283v-88h-283v-306l-97 0z" />
<glyph unicode="&#71;" horiz-adv-x="708" d="M655 46q-66 -29 -126 -43.5q-60 -14.5 -117 -14.5q-124 0 -215 60q-77 50 -119 127q-42 77 -42 169q0 69 28 133.5q28 64.5 79 113.5q55 53 122.5 78q67.5 25 151.5 25q113 0 232 -55l0 -106q-63 34 -119.5 51.5q-56.5 17.5 -113.5 17.5q-61 0 -112 -20.5q-51 -20.5 -87.5 -55.5q-36.5 -35 -56.5 -82.5q-20 -47.5 -20 -102.5q0 -55 20 -102.5q20 -47.5 56 -82.5q36 -35 86 -55q50 -20 109 -20q69 0 143 31l0 133h-128v90l229 0z" />
<glyph unicode="&#72;" horiz-adv-x="734" d="M73 683h97v-294h394v294h97v-683h-97v297h-394v-297l-97 0z" />
<glyph unicode="&#73;" horiz-adv-x="250" d="M76 683h98v-683l-98 0z" />
<glyph unicode="&#74;" horiz-adv-x="252" d="M-46 -140q38 0 62 6.5q24 6.5 38 22q14 15.5 19.5 41q5.5 25.5 5.5 63.5v690h97v-665q0 -36 -1.5 -66.5q-1.5 -30.5 -8 -56.5q-6.5 -26 -19.5 -48q-13 -22 -36 -40q-23 -18 -57 -27.5q-34 -9.5 -76 -9.5h-17l-22 90z" />
<glyph unicode="&#75;" horiz-adv-x="611" d="M76 683h98v-307l285 307h123l-297 -320l354 -363h-136l-329 338v-338l-98 0z" />
<glyph unicode="&#76;" horiz-adv-x="505" d="M76 683h97v-595h325v-88l-422 0z" />
<glyph unicode="&#77;" horiz-adv-x="808" d="M73 683h85l246 -287l246 287h85v-683h-95v533l-236 -275l-236 275v-533l-95 0z" />
<glyph unicode="&#78;" horiz-adv-x="778" d="M73 683h85l450 -530v530h97v-683h-87l-448 531v-531l-97 0z" />
<glyph unicode="&#79;" horiz-adv-x="801" d="M36 344q0 69 28 133q28 64 79 114q53 51 118.5 77q65.5 26 138.5 26q74 0 140.5 -26q66.5 -26 117.5 -77q107 -104 107 -253q0 -69 -27 -133q-27 -64 -79 -114q-108 -103 -259 -103q-73 0 -139.5 26.5q-66.5 26.5 -117.5 76.5q-53 51 -80 115.5q-27 64.5 -27 137.5zt0 0zM140 341q0 -53 19.5 -100q19.5 -47 56.5 -84q36 -37 84 -57q48 -20 100 -20q54 0 100.5 19.5q46.5 19.5 84.5 57.5q37 37 56.5 84q19.5 47 19.5 100q0 53 -19.5 99.5q-19.5 46.5 -57.5 84.5q-37 38 -84 57.5q-47 19.5 -100 19.5q-52 0 -99 -20q-47 -20 -85 -57q-37 -36 -56.5 -83.5t-19.5 -100.5z" />
<glyph unicode="&#80;" horiz-adv-x="542" d="M73 683h213q109 0 168 -52q59 -52 59 -143q0 -92 -59 -143.5q-59 -51.5 -168 -51.5h-116v-293h-97zM276 381q69 0 102 24.5q33 24.5 33 82.5q0 58 -33 82.5q-33 24.5 -102 24.5h-106l0 -214z" />
<glyph unicode="&#81;" horiz-adv-x="801" d="M310 0q-63 15 -113.5 48q-50.5 33 -86.5 78q-36 45 -55 100.5q-19 55.5 -19 117.5q0 69 28 133q28 64 79 114q53 51 118.5 77q65.5 26 138.5 26q74 0 140.5 -26q66.5 -26 117.5 -77q107 -104 107 -253q0 -59 -18.5 -112q-18.5 -53 -53.5 -97.5q-35 -44.5 -86 -77.5q-51 -33 -115 -52q50 -25 96 -38q46 -13 93 -13q28 0 68 8l4 -10l-93 -81q-6 -1 -11.5 -1q-5.5 0 -11.5 0q-65 0 -147.5 33.5q-82.5 33.5 -179.5 102.5zt0 0zM140 341q0 -53 19.5 -100q19.5 -47 56.5 -84q36 -37 84 -57q48 -20 100 -20q54 0 100.5 19.5q46.5 19.5 84.5 57.5q37 37 56.5 84q19.5 47 19.5 100q0 53 -19.5 99.5q-19.5 46.5 -57.5 84.5q-37 38 -84 57.5q-47 19.5 -100 19.5q-52 0 -99 -20q-47 -20 -85 -57q-37 -36 -56.5 -83.5t-19.5 -100.5z" />
<glyph unicode="&#82;" horiz-adv-x="565" d="M251 387q136 0 136 107q0 58 -33.5 82q-33.5 24 -102.5 24h-81v-213zM72 683h200q106 0 161 -49q55 -49 55 -138q0 -67 -30.5 -108q-30.5 -41 -97.5 -62q23 -12 38.5 -31.5q15.5 -19.5 32.5 -44.5l166 -250h-118l-117 179q-20 30 -37 53.5q-17 23.5 -35.5 39.5q-18.5 16 -40 24.5q-21.5 8.5 -50.5 8.5h-29v-305l-98 0z" />
<glyph unicode="&#83;" horiz-adv-x="461" d="M38 182q45 -51 86.5 -75.5q41.5 -24.5 92.5 -24.5q51 0 80 23.5q29 23.5 29 64.5q0 21 -7.5 37.5q-7.5 16.5 -22 31.5q-14.5 15 -35.5 29.5q-21 14.5 -49 32.5q-43 28 -76 51q-33 23 -55 46.5q-22 23.5 -33 51q-11 27.5 -11 64.5q0 39 14.5 72.5q14.5 33.5 41 57.5q26.5 24 64 38q37.5 14 82.5 14q78 0 155 -47l0 -111q-42 34 -80 51.5q-38 17.5 -79 17.5q-48 0 -76 -23q-28 -23 -28 -58q0 -20 9.5 -36.5q9.5 -16.5 27 -32q17.5 -15.5 42.5 -31.5q25 -16 56 -35q37 -23 67 -44.5q30 -21.5 50 -47q20 -25.5 31 -57q11 -31.5 11 -74.5q0 -38 -14.5 -71q-14.5 -33 -41 -57q-26.5 -24 -64 -38q-37.5 -14 -82.5 -14q-54 0 -98.5 15q-44.5 15 -86.5 50z" />
<glyph unicode="&#84;" horiz-adv-x="613" d="M258 595h-251v88h599v-88h-251v-595l-97 0z" />
<glyph unicode="&#85;" horiz-adv-x="726" d="M166 683v-392q0 -46 4 -80q4 -34 27 -60q60 -71 166 -71q45 0 81 12q36 12 62 34q26 22 40 53q14 31 14 68v436h97v-439q0 -57 -21 -104q-21 -47 -60 -80.5q-39 -33.5 -93 -52.5q-54 -19 -120 -19q-79 0 -141 27.5q-62 27.5 -105 80.5q-17 21 -27 43q-10 22 -14.5 45.5q-4.5 23.5 -5.5 49q-1 25.5 -1 53.5l0 396z" />
<glyph unicode="&#86;" horiz-adv-x="593" d="M-20 683h102l213 -487l217 487h101l-307 -688l-25 0z" />
<glyph unicode="&#87;" horiz-adv-x="931" d="M-17 683h101l167 -466l184 466h62l182 -467l170 467h99l-257 -688h-22l-204 526l-206 -526l-23 0z" />
<glyph unicode="&#88;" horiz-adv-x="717" d="M304 362l-271 321h122l210 -253l216 253h120l-276 -321l302 -362h-122l-242 292l-253 -292l-120 0z" />
<glyph unicode="&#89;" horiz-adv-x="583" d="M237 342l-264 341h116l199 -259l204 259h118l-274 -346v-337l-99 0z" />
<glyph unicode="&#90;" horiz-adv-x="637" d="M456 597h-417v86h586v-11l-441 -588h441v-84l-618 0z" />
<glyph unicode="&#91;" horiz-adv-x="313" d="M85 683h219v-68h-136v-756h136v-68l-219 0z" />
<glyph unicode="&#92;" horiz-adv-x="282" d="M2 694h70l235 -787l-67 0z" />
<glyph unicode="&#93;" horiz-adv-x="313" d="M229 -209h-219v68h137v756h-137v68l219 0z" />
<glyph unicode="&#94;" horiz-adv-x="1000" d="M794 440h-88l-206 205l-207 -205h-88l249 272l91 0z" />
<glyph unicode="&#95;" horiz-adv-x="500" d="M500 -236h-500v70l500 0z" />
<glyph unicode="&#96;" horiz-adv-x="500" d="M265 515l-137 170h87l102 -170z" />
<glyph unicode="&#97;" horiz-adv-x="433" d="M282 37q-33 -23 -63.5 -34q-30.5 -11 -66.5 -11q-63 0 -96 29.5q-33 29.5 -33 79.5q0 95 149 145l107 36q1 5 1 9.5q0 4.5 0 9.5q0 41 -20 58.5q-20 17.5 -65 17.5q-77 0 -158 -63l0 89q35 29 78 43q43 14 91 14q90 0 128 -39q38 -39 38 -123v-191q0 -22 3.5 -33q3.5 -11 14.5 -11q11 0 22 7q11 7 25 18l0 -55q-48 -41 -101 -41q-26 0 -39 10.5q-13 10.5 -15 34.5zt0 0zM279 224q-81 -25 -120.5 -48.5q-39.5 -23.5 -39.5 -59.5q0 -28 18 -43q18 -15 50 -15q48 0 92 34z" />
<glyph unicode="&#98;" horiz-adv-x="517" d="M59 683h91v-257q50 35 119 35q49 0 89 -16.5q40 -16.5 68.5 -47q28.5 -30.5 44.5 -74q16 -43.5 16 -97.5q0 -112 -66 -174q-66 -62 -190 -62q-43 0 -85 8q-42 8 -87 23zM150 91q48 -18 91 -18q72 0 111 39.5q39 39.5 39 112.5q0 72 -38 112.5q-38 40.5 -103 40.5q-51 0 -100 -34z" />
<glyph unicode="&#99;" horiz-adv-x="440" d="M410 15q-68 -24 -130 -24q-56 0 -102.5 17.5q-46.5 17.5 -79.5 49q-33 31.5 -51.5 74.5q-18.5 43 -18.5 94q0 49 18.5 92q18.5 43 51.5 74.5q33 31.5 78.5 50q45.5 18.5 99.5 18.5q65 0 127 -28l0 -96q-62 37 -124 37q-36 0 -65 -11q-29 -11 -49.5 -31q-20.5 -20 -31.5 -47q-11 -27 -11 -59q0 -32 11 -59.5q11 -27.5 32 -47.5q21 -20 51 -31.5q30 -11.5 67 -11.5q66 0 127 31z" />
<glyph unicode="&#100;" horiz-adv-x="517" d="M368 25q-26 -18 -54.5 -26q-28.5 -8 -62.5 -8q-48 0 -89 17q-41 17 -70 48q-29 31 -45.5 74q-16.5 43 -16.5 96q0 52 16.5 95.5q16.5 43.5 45.5 74.5q29 31 70 48q41 17 89 17q67 0 117 -35l0 257h90v-683h-90zM368 354q-43 31 -94 31q-69 0 -108.5 -41.5q-39.5 -41.5 -39.5 -116.5q0 -75 39.5 -116.5q39.5 -41.5 108.5 -41.5q51 0 94 31z" />
<glyph unicode="&#101;" horiz-adv-x="488" d="M362 274q-5 50 -36 79.5q-31 29.5 -78 29.5q-105 0 -125 -109zM453 48q-89 -58 -191 -58q-54 0 -97.5 17.5q-43.5 17.5 -73.5 49.5q-30 32 -46.5 77q-16.5 45 -16.5 99q0 50 16 92q16 42 45 72q29 30 69.5 46.5q40.5 16.5 90.5 16.5q48 0 87 -16q39 -16 67 -47q28 -31 43 -75q15 -44 15 -99v-13h-338q4 -65 42 -100.5q38 -35.5 102 -35.5q86 0 186 64z" />
<glyph unicode="&#102;" horiz-adv-x="264" d="M78 0v373h-59v78h59v41q0 42 3 73.5q3 31.5 19 57.5q20 32 54 49.5q34 17.5 77 17.5q14 0 31.5 -3q17.5 -3 40.5 -8l0 -79q-37 8 -57 8q-44 0 -59.5 -24.5q-15.5 -24.5 -15.5 -77.5v-55h60v-78h-60l0 -373z" />
<glyph unicode="&#103;" horiz-adv-x="447" d="M216 375q-43 0 -68.5 -24.5q-25.5 -24.5 -25.5 -61.5q0 -40 24.5 -62q24.5 -22 69.5 -22q45 0 70.5 22.5q25.5 22.5 25.5 61.5q0 37 -26.5 61.5q-26.5 24.5 -69.5 24.5zt0 0zM137 144q-51 16 -77.5 52q-26.5 36 -26.5 89q0 166 225 166h179v-73h-76q36 -39 36 -92q0 -57 -34.5 -96.5q-34.5 -39.5 -92.5 -50.5q-26 -5 -45.5 -7.5q-19.5 -2.5 -33.5 -6.5q-14 -4 -21 -10.5q-7 -6.5 -7 -18.5q0 -11 9 -18q9 -7 27 -12.5q18 -5.5 45 -11q27 -5.5 63 -12.5q133 -27 133 -128q0 -69 -56.5 -105q-56.5 -36 -167.5 -36q-109 0 -164.5 35q-55.5 35 -55.5 101q0 97 130 121q-50 23 -50 55q0 34 61 59zt0 0zM84 -84q0 -67 131 -67q66 0 100 17q34 17 34 45q0 64 -161 64q-48 0 -76 -17.5t-28 -41.5z" />
<glyph unicode="&#104;" horiz-adv-x="501" d="M59 683h90v-287q33 32 66.5 47q33.5 15 72.5 15q74 0 116.5 -42q42.5 -42 42.5 -117v-299h-91v276q0 55 -22.5 81q-22.5 26 -71.5 26q-35 0 -62 -13.5q-27 -13.5 -51 -44.5l0 -325l-90 0z" />
<glyph unicode="&#105;" horiz-adv-x="210" d="M60 451h90v-451h-90zM53 584q0 22 15 37q15 15 37 15q22 0 37 -15q15 -15 15 -37q0 -22 -15 -37q-15 -15 -37 -15q-22 0 -37 15t-15 37z" />
<glyph unicode="&#106;" horiz-adv-x="210" d="M-2 -163q25 10 42 31q14 18 17 35q3 17 3 36v512h90v-504q0 -25 -2 -47.5q-2 -22.5 -10 -43.5q-8 -21 -27.5 -44q-19.5 -23 -56.5 -39zM53 584q0 22 15 37q15 15 37 15q15 0 26 -7q26 -15 26 -45q0 -22 -15 -37q-15 -15 -37 -15q-22 0 -37 15t-15 37z" />
<glyph unicode="&#107;" horiz-adv-x="483" d="M60 683h90v-683h-90zM269 245l227 -245h-123l-220 240l194 211l111 0z" />
<glyph unicode="&#108;" horiz-adv-x="211" d="M60 683h90v-683l-90 0z" />
<glyph unicode="&#109;" horiz-adv-x="794" d="M57 451h90v-55q33 32 66.5 47q33.5 15 72.5 15q50 0 83.5 -18q33.5 -18 56.5 -58q39 38 75 57q36 19 80 19q74 0 116.5 -42q42.5 -42 42.5 -117v-299h-90v276q0 107 -95 107q-35 0 -61 -13.5q-26 -13.5 -51 -44.5l0 -325h-89v276q0 107 -95 107q-35 0 -61 -13.5q-26 -13.5 -51 -44.5l0 -325l-90 0z" />
<glyph unicode="&#110;" horiz-adv-x="499" d="M57 451h90v-55q33 32 66.5 47q33.5 15 72.5 15q74 0 116 -42q42 -42 42 -117v-299h-90v276q0 107 -95 107q-35 0 -61 -13.5q-26 -13.5 -51 -44.5l0 -325l-90 0z" />
<glyph unicode="&#111;" horiz-adv-x="535" d="M28 226q0 49 18.5 91.5q18.5 42.5 51 74.5q32.5 32 76 50.5q43.5 18.5 94.5 18.5q48 0 91 -18q43 -18 77 -51q35 -35 53 -76.5q18 -41.5 18 -89.5q0 -47 -18.5 -91q-18.5 -44 -52.5 -77q-70 -68 -168 -68q-50 0 -94 18.5q-44 18.5 -76.5 50q-32.5 31.5 -51 74.5q-18.5 43 -18.5 93zt0 0zM122 226q0 -32 11.5 -59.5q11.5 -27.5 31 -47.5q19.5 -20 46 -31.5q26.5 -11.5 56.5 -11.5q30 0 56.5 11.5q26.5 11.5 46 32q19.5 20.5 31 47.5q11.5 27 11.5 59q0 31 -11.5 58q-11.5 27 -31 47.5q-19.5 20.5 -46 32q-26.5 11.5 -56.5 11.5q-30 0 -56.5 -11.5q-26.5 -11.5 -46 -32q-19.5 -20.5 -31 -47.5t-11.5 -58z" />
<glyph unicode="&#112;" horiz-adv-x="517" d="M59 451h91v-25q50 35 116 35q48 0 89 -17q41 -17 70 -48q29 -31 45.5 -74.5q16.5 -43.5 16.5 -95.5q0 -53 -16.5 -96q-16.5 -43 -45.5 -74q-29 -31 -70 -48q-41 -17 -89 -17q-34 0 -62 8q-28 8 -54 26l0 -252h-91zM150 99q43 -30 93 -30q69 0 108.5 41.5q39.5 41.5 39.5 115.5q0 75 -39.5 116q-39.5 41 -108.5 41q-50 0 -93 -31z" />
<glyph unicode="&#113;" horiz-adv-x="517" d="M368 25q-26 -18 -54.5 -26q-28.5 -8 -62.5 -8q-48 0 -89 17q-41 17 -70 48q-29 31 -45.5 74q-16.5 43 -16.5 96q0 52 16.5 95.5q16.5 43.5 45.5 74.5q29 31 70 48q41 17 89 17q67 0 117 -35l0 25h90v-678h-90zM368 351q-43 31 -94 31q-69 0 -108.5 -41.5q-39.5 -41.5 -39.5 -116.5q0 -75 39.5 -116q39.5 -41 108.5 -41q51 0 94 31z" />
<glyph unicode="&#114;" horiz-adv-x="375" d="M58 451h90v-98q34 54 64 80q30 26 69 26q47 0 103 -44l-49 -80q-21 18 -41 27q-20 9 -43 9q-35 0 -63 -29.5q-28 -29.5 -40 -86.5l0 -255l-90 0z" />
<glyph unicode="&#115;" horiz-adv-x="376" d="M28 127q43 -29 80.5 -42q37.5 -13 66.5 -13q35 0 54.5 13q19.5 13 19.5 35q0 13 -7.5 22.5q-7.5 9.5 -21.5 18.5q-14 9 -34 18.5q-20 9.5 -44 22.5q-27 14 -47.5 27.5q-20.5 13.5 -34.5 29.5q-14 16 -21 35q-7 19 -7 44q0 56 40 89.5q40 33.5 112 33.5q75 0 142 -37l0 -88q-39 22 -74 33.5q-35 11.5 -67 11.5q-59 0 -59 -38q0 -27 26 -43.5q26 -16.5 77 -41.5q28 -14 50 -27q22 -13 37 -28.5q15 -15.5 23 -34.5q8 -19 8 -46q0 -59 -44 -95q-44 -36 -119 -36q-83 0 -156 40z" />
<glyph unicode="&#116;" horiz-adv-x="322" d="M306 14q-42 -23 -97 -23q-41 0 -68 10q-27 10 -42.5 30.5q-15.5 20.5 -21.5 52q-6 31.5 -6 75.5v214h-77v9l158 174h10v-105h141v-78h-141v-207q0 -24 2 -41q2 -17 9 -27.5q7 -10.5 20 -15.5q13 -5 35 -5q41 0 78 22l0 -85z" />
<glyph unicode="&#117;" horiz-adv-x="499" d="M352 55q-33 -32 -66.5 -47q-33.5 -15 -72.5 -15q-74 0 -116.5 42q-42.5 42 -42.5 117v299h91v-276q0 -107 95 -107q35 0 61 13.5q26 13.5 51 44.5l0 325h90v-451h-90l0 55z" />
<glyph unicode="&#118;" horiz-adv-x="444" d="M-14 451h100l139 -299l130 299h98l-208 -460l-42 0z" />
<glyph unicode="&#119;" horiz-adv-x="748" d="M-6 451h95l129 -299l124 299h59l126 -298l129 298h95l-201 -460h-44l-134 327l-134 -327l-44 0z" />
<glyph unicode="&#120;" horiz-adv-x="475" d="M178 233l-178 218h111l121 -153l119 153h111l-173 -216l190 -235h-109l-135 166l-130 -166l-109 0z" />
<glyph unicode="&#121;" horiz-adv-x="444" d="M-14 451h100l139 -264l130 264h98l-335 -678h-98l156 316z" />
<glyph unicode="&#122;" horiz-adv-x="441" d="M9 12l252 355h-242v84h399v-10l-247 -357h251v-84l-413 0z" />
<glyph unicode="&#123;" horiz-adv-x="500" d="M403 648q-31 0 -50.5 -5.5q-19.5 -5.5 -30 -18.5q-10.5 -13 -14.5 -34.5q-4 -21.5 -4 -53.5v-118q0 -35 -4 -61q-4 -26 -14.5 -45.5q-10.5 -19.5 -30 -32q-19.5 -12.5 -49.5 -20.5q31 -8 50 -20.5q19 -12.5 29.5 -32q10.5 -19.5 14.5 -45.5q4 -26 4 -61v-118q0 -32 3.5 -53.5q3.5 -21.5 14.5 -34.5q11 -13 30.5 -18.5q19.5 -5.5 51.5 -5.5h19v-72h-21q-44 0 -76.5 4.5q-32.5 4.5 -56.5 19.5q-33 20 -41 56.5q-8 36.5 -8 93.5v120q0 71 -26 101.5q-26 30.5 -91 30.5q-5 0 -10.5 -0.5q-5.5 -0.5 -10.5 -0.5l0 73q6 0 11.5 -0.5q5.5 -0.5 10.5 -0.5q64 0 90 30q26 30 26 101v120q0 57 8 93.5q8 36.5 41 56.5q25 15 58 20q33 5 78 5h18l0 -73z" />
<glyph unicode="&#124;" horiz-adv-x="501" d="M287 -236h-73v1000l73 0z" />
<glyph unicode="&#125;" horiz-adv-x="500" d="M281 426q0 -36 6 -60.5q6 -24.5 19.5 -40.5q13.5 -16 36 -23q22.5 -7 54.5 -7q5 0 10.5 0.5q5.5 0.5 11.5 0.5l0 -73q-5 0 -10.5 0.5q-5.5 0.5 -10.5 0.5q-66 0 -91.5 -30.5q-25.5 -30.5 -25.5 -101.5v-120q0 -57 -8 -93.5q-8 -36.5 -41 -56.5q-24 -15 -56.5 -19.5q-32.5 -4.5 -76.5 -4.5h-21v72h19q31 0 51 5.5q20 5.5 30.5 18.5q10.5 13 14.5 35q4 22 4 54v117q0 35 4 61q4 26 14.5 45.5q10.5 19.5 30 32q19.5 12.5 49.5 20.5q-30 8 -49.5 20.5q-19.5 12.5 -30 32q-10.5 19.5 -14.5 45.5q-4 26 -4 61v118q0 32 -4 53.5q-4 21.5 -14.5 34.5q-10.5 13 -30.5 18.5q-20 5.5 -51 5.5h-19v73h18q45 0 78.5 -5q33.5 -5 57.5 -20q33 -20 41 -56.5q8 -36.5 8 -93.5z" />
<glyph unicode="&#126;" horiz-adv-x="833" d="M747 300q-50 -35 -96 -52q-46 -17 -94 -17q-38 0 -72 11q-34 11 -69 23q-35 12 -69 22q-34 10 -72 10q-45 0 -89.5 -19.5q-44.5 -19.5 -98.5 -57.5l0 76q103 70 189 70q39 0 73.5 -9q34.5 -9 68.5 -21q37 -13 71 -24.5q34 -11.5 69 -11.5q47 0 92 19.5q45 19.5 97 56.5l0 -76z" />
<glyph unicode="&#160;" horiz-adv-x="252" />
<glyph unicode="&#161;" horiz-adv-x="251" d="M131 473q23 -78 36.5 -172.5q13.5 -94.5 13.5 -193.5q0 -60 -13.5 -88q-13.5 -28 -43.5 -28q-30 0 -43 30q-13 30 -13 92q0 63 4.5 120q4.5 57 12 103.5q7.5 46.5 16.5 81.5q9 35 17 55zM64 632q0 26 17.5 44q17.5 18 43.5 18q26 0 44 -18q18 -18 18 -44q0 -26 -18 -43.5q-18 -17.5 -44 -17.5q-26 0 -43.5 17.5t-17.5 43.5z" />
<glyph unicode="&#162;" horiz-adv-x="505" d="M178 24q-61 32 -93.5 86q-32.5 54 -32.5 122q0 52 18.5 96q18.5 44 52 76q33.5 32 80 50.5q46.5 18.5 102.5 18.5q10 0 19.5 0q9.5 0 20.5 -2l59 156h54l-64 -169q18 -3 33 -14l0 -97q-30 18 -63 30l-106 -285q28 -6 51 -6q63 0 125 31l0 -91q-29 -13 -63 -18.5q-34 -5.5 -73 -5.5q-31 0 -70 10l-71 -188h-53zM314 387q-5 1 -10.5 1q-5.5 0 -10.5 0q-32 0 -58.5 -12q-26.5 -12 -46 -33q-19.5 -21 -30.5 -50q-11 -29 -11 -63q0 -75 63 -122z" />
<glyph unicode="&#163;" horiz-adv-x="505" d="M112 293h-66v88h96q45 158 107.5 236.5q62.5 78.5 139.5 78.5q23 0 49 -6l47 -92q-32 8 -57 8q-71 0 -114.5 -55q-43.5 -55 -72.5 -170l73 0v-88h-103l-50 -191q11 1 24 1.5q13 0.5 30 0.5q44 0 84.5 -9.5q40.5 -9.5 80.5 -9.5q18 0 41 5q23 5 52 14l0 -97q-29 -8 -54.5 -12q-25.5 -4 -48.5 -4q-36 0 -83 9q-47 9 -104 9q-53 0 -150 -15z" />
<glyph unicode="&#164;" horiz-adv-x="607" d="M179 595q55 42 124 42q69 0 125 -42l100 100l40 -39l-100 -101q40 -53 40 -123q0 -34 -9.5 -64.5q-9.5 -30.5 -30.5 -58.5l100 -100l-40 -40l-100 100q-26 -20 -56.5 -31q-30.5 -11 -67.5 -11q-70 0 -125 42l-100 -100l-40 40l101 100q-17 21 -29 52q-12 31 -12 71q0 68 41 123l-101 101l40 39zM452 433q0 30 -11.5 57q-11.5 27 -31.5 47.5q-20 20.5 -47 32q-27 11.5 -58 11.5q-31 0 -58 -11.5q-27 -11.5 -47 -32q-20 -20.5 -31.5 -47.5q-11.5 -27 -11.5 -57q0 -31 11.5 -58q11.5 -27 31.5 -47.5q20 -20.5 47 -32q27 -11.5 58 -11.5q31 0 58 11.5q27 11.5 47 32q20 20.5 31.5 47.5t11.5 58z" />
<glyph unicode="&#165;" horiz-adv-x="505" d="M200 300h-212v54h204l-60 80h-144v53h105l-147 196h107l197 -267l199 267h110l-148 -195h97v-54h-138l-61 -80h199v-54h-213v-300l-95 0z" />
<glyph unicode="&#166;" horiz-adv-x="501" d="M287 329h-73v370h73zM287 -171h-73v370l73 0z" />
<glyph unicode="&#167;" horiz-adv-x="505" d="M87 29q87 -55 160 -55q38 0 59 16q21 16 21 42q0 28 -25 48.5q-25 20.5 -75 45.5q-43 22 -77.5 40q-34.5 18 -59 38q-24.5 20 -37.5 45.5q-13 25.5 -13 61.5q0 90 105 134q-61 41 -61 110q0 63 45 101.5q45 38.5 128 38.5q42 0 78.5 -8.5q36.5 -8.5 70.5 -27.5l0 -88q-83 47 -144 47q-40 0 -61.5 -15.5q-21.5 -15.5 -21.5 -44.5q0 -17 8.5 -29.5q8.5 -12.5 26 -25q17.5 -12.5 42.5 -25.5q25 -13 58 -30q36 -18 64 -35q28 -17 47 -36q19 -19 29 -42.5q10 -23.5 10 -53.5q0 -47 -26 -79q-26 -32 -80 -54q62 -44 62 -111q0 -64 -45 -102q-45 -38 -128 -38q-85 0 -160 42zM299 185q38 17 55.5 37q17.5 20 17.5 50q0 29 -16 48q-16 19 -51 36l-99 52q-38 -17 -56 -37q-18 -20 -18 -50q0 -29 16.5 -48.5q16.5 -19.5 51.5 -36.5z" />
<glyph unicode="&#168;" horiz-adv-x="500" d="M108 590q0 20 15 35q15 15 35 15q20 0 35 -15q15 -15 15 -35q0 -20 -15 -35q-15 -15 -35 -15q-20 0 -35 15q-15 15 -15 35zt0 0zM292 590q0 20 15 35q15 15 35 15q20 0 35 -15q15 -15 15 -35q0 -20 -15 -35q-15 -15 -35 -15q-20 0 -35 15t-15 35z" />
<glyph unicode="&#169;" horiz-adv-x="833" d="M416 715q74 0 139 -26.5q65 -26.5 117 -78.5q51 -51 78 -116.5q27 -65.5 27 -138.5q0 -74 -26.5 -138q-26.5 -64 -77.5 -114q-54 -52 -119.5 -80q-65.5 -28 -137.5 -28q-72 0 -136.5 27.5q-64.5 27.5 -116.5 79.5q-52 52 -79 116.5q-27 64.5 -27 136.5q0 72 27 137q27 65 80 119q51 51 115 77.5q64 26.5 137 26.5zt0 0zM729 355q0 64 -23 120.5q-23 56.5 -67 100.5q-92 92 -222 92q-64 0 -119.5 -23q-55.5 -23 -99.5 -67q-46 -46 -70 -103.5q-24 -57.5 -24 -119.5q0 -62 24 -118.5q24 -56.5 69 -101.5q45 -45 101 -68.5q56 -23.5 119 -23.5q62 0 118.5 24q56.5 24 103.5 69q44 43 67 98.5q23 55.5 23 120.5zt0 0zM514 443q-6 38 -32 58q-26 20 -68 20q-50 0 -80 -42.5q-30 -42.5 -30 -123.5q0 -78 30.5 -120q30.5 -42 84.5 -42q40 0 66.5 22.5q26.5 22.5 33.5 63.5l71 0q-5 -64 -52.5 -103.5q-47.5 -39.5 -121.5 -39.5q-88 0 -139 58q-51 58 -51 164q0 49 14 89.5q14 40.5 39.5 68.5q25.5 28 61 43.5q35.5 15.5 78.5 15.5q35 0 64.5 -9.5q29.5 -9.5 51.5 -27q22 -17.5 35 -42q13 -24.5 16 -53.5z" />
<glyph unicode="&#170;" horiz-adv-x="323" d="M210 393q-25 -17 -48 -24.5q-23 -7.5 -50 -7.5q-47 0 -72 21q-25 21 -25 56q0 66 112 101l80 25q1 5 1 14q0 28 -15 40.5q-15 12.5 -49 12.5q-57 0 -118 -44l0 62q26 20 58.5 30q32.5 10 68.5 10q67 0 95.5 -27.5q28.5 -27.5 28.5 -85.5v-134q0 -31 14 -31q8 0 16 5q8 5 19 13l0 -39q-36 -29 -76 -29q-37 0 -40 32zt0 0zM207 524q-60 -17 -90 -33.5q-30 -16.5 -30 -42.5q0 -20 13.5 -30q13.5 -10 37.5 -10q37 0 69 23z" />
<glyph unicode="&#171;" horiz-adv-x="425" d="M225 381l-115 -155l115 -147h-77l-117 147l117 155zM394 381l-115 -155l115 -147h-77l-118 147l118 155z" />
<glyph unicode="&#172;" horiz-adv-x="833" d="M709 175h-67v177h-518v68l585 0z" />
<glyph unicode="&#173;" horiz-adv-x="338" d="M41 266h256v-81l-256 0z" />
<glyph unicode="&#174;" horiz-adv-x="833" d="M416 715q74 0 139.5 -27q65.5 -27 117.5 -80q50 -51 77 -116q27 -65 27 -137q0 -75 -27 -139q-27 -64 -78 -114q-54 -52 -119.5 -79.5q-65.5 -27.5 -136.5 -27.5q-72 0 -137 27.5q-65 27.5 -117 80.5q-51 52 -78 116q-27 64 -27 136q0 72 28 138q28 66 81 120q50 51 113.5 76.5q63.5 25.5 136.5 25.5zt0 0zM729 352q0 66 -22.5 122.5q-22.5 56.5 -66.5 100.5q-45 46 -101.5 69.5q-56.5 23.5 -121.5 23.5q-63 0 -119 -22.5q-56 -22.5 -99 -66.5q-46 -47 -70.5 -104.5q-24.5 -57.5 -24.5 -119.5q0 -62 23.5 -118q23.5 -56 68.5 -101q45 -45 101.5 -69q56.5 -24 116.5 -24q64 0 120.5 23.5q56.5 23.5 103.5 68.5q45 43 68 98.5q23 55.5 23 118.5zt0 0zM426 566q170 0 170 -112q0 -44 -24 -72.5q-24 -28.5 -69 -37.5l91 -186h-86l-83 174h-76v-174h-77v408zM349 516v-135h65q53 0 78 14.5q25 14.5 25 50.5q0 38 -25.5 54q-25.5 16 -79.5 16z" />
<glyph unicode="&#175;" horiz-adv-x="500" d="M124 622h252v-61l-252 0z" />
<glyph unicode="&#176;" horiz-adv-x="329" d="M165 711q29 0 54.5 -11q25.5 -11 44.5 -30q19 -19 30 -45q11 -26 11 -55q0 -29 -11 -54q-11 -25 -29.5 -44.5q-18.5 -19.5 -44.5 -30.5q-26 -11 -56 -11q-30 0 -55.5 11q-25.5 11 -44 30q-18.5 19 -29.5 44.5q-11 25.5 -11 54.5q0 30 11 55.5q11 25.5 30.5 44.5q19.5 19 45 30q25.5 11 54.5 11zt0 0zM259 571q0 39 -27 66.5q-27 27.5 -67 27.5q-20 0 -37 -7q-17 -7 -30 -20q-13 -13 -20.5 -30q-7.5 -17 -7.5 -37q0 -40 27.5 -68q27.5 -28 67.5 -28q20 0 37.5 7.5q17.5 7.5 30 21q12.5 13.5 19.5 30.5t7 37z" />
<glyph unicode="&#177;" horiz-adv-x="833" d="M451 416h258v-68h-258v-166h-69v166h-258v68h258v166h69zM709 14h-585v69l585 0z" />
<glyph unicode="&#178;" horiz-adv-x="331" d="M20 273q44 58 77.5 95q33.5 37 50.5 60q63 81 63 131q0 34 -21.5 54.5q-21.5 20.5 -56.5 20.5q-47 0 -101 -51l0 70q55 37 110 37q60 0 96.5 -34q36.5 -34 36.5 -90q0 -53 -36.5 -108.5q-36.5 -55.5 -101.5 -125.5l170 0v-59l-287 0z" />
<glyph unicode="&#179;" horiz-adv-x="330" d="M41 352q51 -25 97 -25q35 0 54.5 18q19.5 18 19.5 47q0 63 -96 68l0 52q45 0 68.5 18q23.5 18 23.5 47q0 26 -22.5 43q-22.5 17 -60.5 17q-18 0 -36 -5.5q-18 -5.5 -40 -13.5l0 53q23 9 44 14q21 5 43 5q63 0 99 -30q36 -30 36 -78q0 -58 -54 -90q64 -28 64 -98q0 -57 -39.5 -92.5q-39.5 -35.5 -105.5 -35.5q-47 0 -95 24z" />
<glyph unicode="&#180;" horiz-adv-x="500" d="M285 685h87l-137 -170l-52 0z" />
<glyph unicode="&#181;" horiz-adv-x="480" d="M145 230q-3 -17 -3.5 -32.5q-0.5 -15.5 -0.5 -32.5q2 -48 20.5 -73.5q18.5 -25.5 48.5 -25.5q60 0 89.5 47q29.5 47 42.5 148l28 190h87l-43 -285q-2 -17 -4 -33.5q-2 -16.5 -2 -31.5q0 -18 9.5 -25.5q9.5 -7.5 28.5 -7.5q4 0 7.5 0q3.5 0 8.5 1l-12 -70q-14 -3 -27 -4q-13 -1 -26 -1q-30 0 -45.5 14.5q-15.5 14.5 -26.5 48.5q-36 -67 -116 -67q-29 0 -50 14q-21 14 -41 46l-41 -277h-87l101 678l87 0z" />
<glyph unicode="&#182;" horiz-adv-x="500" d="M409 680v-680h-54v680h-87v-680h-54v382q-85 4 -133.5 50.5q-48.5 46.5 -48.5 119.5q0 37 13.5 68.5q13.5 31.5 38.5 54q25 22.5 60.5 35q35.5 12.5 79.5 12.5h244l0 -42z" />
<glyph unicode="&#183;" horiz-adv-x="252" d="M68 345q0 25 17 42q17 17 42 17q25 0 42 -17q17 -17 17 -42q0 -25 -17 -42q-17 -17 -42 -17q-25 0 -42 17t-17 42z" />
<glyph unicode="&#184;" horiz-adv-x="500" d="M128 -164q78 -18 121 -18q59 0 59 41q0 26 -16.5 37q-16.5 11 -51.5 11q-6 0 -12 0q-6 0 -13 -1l0 94h35v-52h11q111 0 111 -86q0 -89 -122 -89q-24 0 -54 5q-30 5 -68 15z" />
<glyph unicode="&#185;" horiz-adv-x="331" d="M132 683h64v-410l-64 0z" />
<glyph unicode="&#186;" horiz-adv-x="399" d="M20 525q0 34 14 64q14 30 38 52.5q24 22.5 57 35.5q33 13 71 13q36 0 68 -13q32 -13 58 -36q53 -48 53 -116q0 -32 -13.5 -63q-13.5 -31 -39.5 -54q-52 -47 -126 -47q-38 0 -70.5 12.5q-32.5 12.5 -57 35q-24.5 22.5 -38.5 52q-14 29.5 -14 64.5zt0 0zM91 525q0 -22 8.5 -41q8.5 -19 23 -33.5q14.5 -14.5 34 -22.5q19.5 -8 42.5 -8q22 0 42 8q20 8 35 22.5q15 14.5 23.5 33.5q8.5 19 8.5 41q0 22 -8.5 41q-8.5 19 -23.5 33q-15 14 -35 22q-20 8 -42 8q-23 0 -42.5 -8q-19.5 -8 -34 -22q-14.5 -14 -23 -33t-8.5 -41z" />
<glyph unicode="&#187;" horiz-adv-x="425" d="M393 226l-117 -147h-77l115 147l-115 155h77zM225 226l-118 -147h-76l114 147l-114 155l76 0z" />
<glyph unicode="&#188;" horiz-adv-x="805" d="M126 683h61v-382h-61zM149 -12l426 706h74l-426 -706zM677 288l-104 -115h102zM675 128h-184v23l216 238h27v-216h48v-45h-48v-128l-59 0z" />
<glyph unicode="&#189;" horiz-adv-x="805" d="M126 683h61v-382h-61zM149 -12l426 706h74l-426 -706zM508 0q42 54 74 89q32 35 49 55q59 76 59 123q0 32 -20 51q-20 19 -54 19q-23 0 -47 -12q-24 -12 -49 -35l0 65q52 34 104 34q57 0 92.5 -31.5q35.5 -31.5 35.5 -84.5q0 -50 -35 -101q-35 -51 -98 -117l163 0l0 -55z" />
<glyph unicode="&#190;" horiz-adv-x="804" d="M39 374q51 -24 92 -24q34 0 52.5 16.5q18.5 16.5 18.5 44.5q0 58 -91 64l0 48q42 0 64.5 17q22.5 17 22.5 43q0 24 -21 40q-21 16 -58 16q-17 0 -34.5 -4.5q-17.5 -4.5 -37.5 -12.5l0 49q42 18 83 18q60 0 94 -28q34 -28 34 -73q0 -54 -51 -84q29 -12 45 -35.5q16 -23.5 16 -55.5q0 -53 -38 -86.5q-38 -33.5 -101 -33.5q-44 0 -90 23zM148 -12l426 706h74l-426 -706zM676 288l-104 -115h102zM674 128h-184v23l216 238h27v-216h48v-45h-48v-128l-59 0z" />
<glyph unicode="&#191;" horiz-adv-x="313" d="M113 634q0 26 17.5 43q17.5 17 43.5 17q26 0 43.5 -17q17.5 -17 17.5 -43q0 -26 -17.5 -43.5q-17.5 -17.5 -43.5 -17.5q-26 0 -43.5 17.5q-17.5 17.5 -17.5 43.5zt0 0zM270 17q-50 -27 -105 -27q-32 0 -59.5 11q-27.5 11 -47 31.5q-19.5 20.5 -30.5 48q-11 27.5 -11 60.5q0 47 17.5 83q17.5 36 48.5 75q18 23 34.5 42q16.5 19 29.5 36.5q13 17.5 20.5 34.5q7.5 17 7.5 35q0 14 -6 31l23 10q40 -41 40 -91q0 -28 -10.5 -53q-10.5 -25 -27.5 -53q-26 -41 -47 -73.5q-21 -32.5 -21 -66.5q0 -29 17.5 -46.5q17.5 -17.5 46.5 -17.5q21 0 45.5 9.5q24.5 9.5 53.5 26.5z" />
<glyph unicode="&#192;" horiz-adv-x="623" d="M274 683h71l300 -683h-101l-88 201h-291l-87 -201h-100zM416 289l-108 246l-105 -246zM328 749l-137 170h87l102 -170z" />
<glyph unicode="&#193;" horiz-adv-x="623" d="M274 683h71l300 -683h-101l-88 201h-291l-87 -201h-100zM416 289l-108 246l-105 -246zM347 919h87l-137 -170l-52 0z" />
<glyph unicode="&#194;" horiz-adv-x="623" d="M274 683h71l300 -683h-101l-88 201h-291l-87 -201h-100zM416 289l-108 246l-105 -246zM268 919h87l96 -170h-52l-87 118l-88 -118l-52 0z" />
<glyph unicode="&#195;" horiz-adv-x="623" d="M274 683h71l300 -683h-101l-88 201h-291l-87 -201h-100zM416 289l-108 246l-105 -246zM454 880q-12 -47 -37 -70.5q-25 -23.5 -60 -23.5q-9 0 -16.5 1.5q-7.5 1.5 -15.5 3.5l-39 13q-12 4 -26 4q-33 0 -47 -31l-43 0q21 91 97 91q17 0 29 -4l38 -14q17 -5 30 -5q35 0 47 35l43 0z" />
<glyph unicode="&#196;" horiz-adv-x="623" d="M274 683h71l300 -683h-101l-88 201h-291l-87 -201h-100zM416 289l-108 246l-105 -246zM170 824q0 20 15 35q15 15 35 15q20 0 35 -15q15 -15 15 -35q0 -20 -15 -35q-15 -15 -35 -15q-20 0 -35 15q-15 15 -15 35zt0 0zM354 824q0 20 15 35q15 15 35 15q20 0 35 -15q15 -15 15 -35q0 -20 -15 -35q-15 -15 -35 -15q-20 0 -35 15t-15 35z" />
<glyph unicode="&#197;" horiz-adv-x="623" d="M274 683h71l300 -683h-101l-88 201h-291l-87 -201h-100zM416 289l-108 246l-105 -246zM188 835q0 25 9.5 47q9.5 22 25.5 38.5q16 16.5 38 25.5q22 9 48 9q25 0 47.5 -9q22.5 -9 38.5 -25.5q16 -16.5 25.5 -38.5q9.5 -22 9.5 -47q0 -26 -9.5 -48q-9.5 -22 -25.5 -38q-16 -16 -38.5 -25.5q-22.5 -9.5 -47.5 -9.5q-26 0 -48 9.5q-22 9.5 -38 25.5q-16 16 -25.5 38q-9.5 22 -9.5 48zt0 0zM240 834q0 -29 20 -49.5q20 -20.5 49 -20.5q29 0 49.5 20.5q20.5 20.5 20.5 49.5q0 29 -20.5 49.5q-20.5 20.5 -49.5 20.5q-30 0 -49.5 -20.5t-19.5 -49.5z" />
<glyph unicode="&#198;" horiz-adv-x="918" d="M437 595l-202 -306h207v306zM442 197h-270l-131 -197h-106l453 683h471v-88h-317v-206h307v-88h-307v-213h326v-88l-426 0z" />
<glyph unicode="&#199;" horiz-adv-x="694" d="M246 -164q78 -18 121 -18q59 0 59 41q0 26 -16.5 37q-16.5 11 -51.5 11q-6 0 -12 0q-6 0 -13 -1l0 89q-75 14 -136 54q-77 50 -119 127q-42 77 -42 168q0 69 28 133.5q28 64.5 79 113.5q109 103 273 103q71 0 128 -16.5q57 -16.5 105 -38.5l0 -106q-63 34 -119.5 51.5q-56.5 17.5 -113.5 17.5q-61 0 -112 -20.5q-51 -20.5 -87.5 -55.5q-36.5 -35 -56.5 -82.5q-20 -47.5 -20 -102.5q0 -55 20 -102.5q20 -47.5 56 -82.5q36 -35 85.5 -55q49.5 -20 108.5 -20q119 0 245 81l0 -110q-122 -64 -246 -64q-11 0 -21 0.5q-10 0.5 -20 1.5l0 -42h11q111 0 111 -86q0 -89 -122 -89q-24 0 -54 5q-30 5 -68 15z" />
<glyph unicode="&#200;" horiz-adv-x="544" d="M73 683h411v-88h-314v-206h305v-88h-305v-213h324v-88h-421zM293 749l-137 170h87l102 -170z" />
<glyph unicode="&#201;" horiz-adv-x="544" d="M73 683h411v-88h-314v-206h305v-88h-305v-213h324v-88h-421zM313 919h87l-137 -170l-52 0z" />
<glyph unicode="&#202;" horiz-adv-x="544" d="M73 683h411v-88h-314v-206h305v-88h-305v-213h324v-88h-421zM234 919h87l96 -170h-52l-87 118l-88 -118l-52 0z" />
<glyph unicode="&#203;" horiz-adv-x="544" d="M73 683h411v-88h-314v-206h305v-88h-305v-213h324v-88h-421zM136 824q0 20 15 35q15 15 35 15q20 0 35 -15q15 -15 15 -35q0 -20 -15 -35q-15 -15 -35 -15q-20 0 -35 15q-15 15 -15 35zt0 0zM320 824q0 20 15 35q15 15 35 15q20 0 35 -15q15 -15 15 -35q0 -20 -15 -35q-15 -15 -35 -15q-20 0 -35 15t-15 35z" />
<glyph unicode="&#204;" horiz-adv-x="250" d="M76 683h98v-683h-98zM139 749l-137 170h87l102 -170z" />
<glyph unicode="&#205;" horiz-adv-x="250" d="M76 683h98v-683h-98zM160 919h87l-137 -170l-52 0z" />
<glyph unicode="&#206;" horiz-adv-x="250" d="M76 683h98v-683h-98zM81 919h87l96 -170h-52l-87 118l-88 -118l-52 0z" />
<glyph unicode="&#207;" horiz-adv-x="250" d="M76 683h98v-683h-98zM-17 824q0 20 15 35q15 15 35 15q20 0 35 -15q15 -15 15 -35q0 -20 -15 -35q-15 -15 -35 -15q-20 0 -35 15q-15 15 -15 35zt0 0zM167 824q0 20 15 35q15 15 35 15q20 0 35 -15q15 -15 15 -35q0 -20 -15 -35q-15 -15 -35 -15q-20 0 -35 15t-15 35z" />
<glyph unicode="&#208;" horiz-adv-x="748" d="M331 683q69 0 124.5 -12.5q55.5 -12.5 105.5 -46.5q69 -47 107 -120q38 -73 38 -162q0 -89 -38.5 -162.5q-38.5 -73.5 -107.5 -120.5q-48 -33 -104 -46q-56 -13 -125 -13h-251v304h-80v78h80v301zM177 590v-208h178v-78h-178v-211h154q65 0 115.5 18q50.5 18 85 50.5q34.5 32.5 52.5 78q18 45.5 18 101.5q0 56 -18 102q-18 46 -52.5 78.5q-34.5 32.5 -85 50.5q-50.5 18 -115.5 18z" />
<glyph unicode="&#209;" horiz-adv-x="778" d="M73 683h85l450 -530v530h97v-683h-87l-448 531v-531h-97zM532 880q-12 -47 -37 -70.5q-25 -23.5 -60 -23.5q-9 0 -16.5 1.5q-7.5 1.5 -15.5 3.5l-39 13q-12 4 -26 4q-33 0 -47 -31l-43 0q21 91 97 91q17 0 29 -4l38 -14q17 -5 30 -5q35 0 47 35l43 0z" />
<glyph unicode="&#210;" horiz-adv-x="801" d="M36 344q0 69 28 133q28 64 79 114q53 51 118.5 77q65.5 26 138.5 26q74 0 140.5 -26q66.5 -26 117.5 -77q107 -104 107 -253q0 -69 -27 -133q-27 -64 -79 -114q-108 -103 -259 -103q-73 0 -139.5 26.5q-66.5 26.5 -117.5 76.5q-53 51 -80 115.5q-27 64.5 -27 137.5zt0 0zM140 341q0 -53 19.5 -100q19.5 -47 56.5 -84q36 -37 84 -57q48 -20 100 -20q54 0 100.5 19.5q46.5 19.5 84.5 57.5q37 37 56.5 84q19.5 47 19.5 100q0 53 -19.5 99.5q-19.5 46.5 -57.5 84.5q-37 38 -84 57.5q-47 19.5 -100 19.5q-52 0 -99 -20q-47 -20 -85 -57q-37 -36 -56.5 -83.5q-19.5 -47.5 -19.5 -100.5zt0 0zM416 749l-137 170h87l102 -170z" />
<glyph unicode="&#211;" horiz-adv-x="801" d="M36 344q0 69 28 133q28 64 79 114q53 51 118.5 77q65.5 26 138.5 26q74 0 140.5 -26q66.5 -26 117.5 -77q107 -104 107 -253q0 -69 -27 -133q-27 -64 -79 -114q-108 -103 -259 -103q-73 0 -139.5 26.5q-66.5 26.5 -117.5 76.5q-53 51 -80 115.5q-27 64.5 -27 137.5zt0 0zM140 341q0 -53 19.5 -100q19.5 -47 56.5 -84q36 -37 84 -57q48 -20 100 -20q54 0 100.5 19.5q46.5 19.5 84.5 57.5q37 37 56.5 84q19.5 47 19.5 100q0 53 -19.5 99.5q-19.5 46.5 -57.5 84.5q-37 38 -84 57.5q-47 19.5 -100 19.5q-52 0 -99 -20q-47 -20 -85 -57q-37 -36 -56.5 -83.5q-19.5 -47.5 -19.5 -100.5zt0 0zM436 919h87l-137 -170l-52 0z" />
<glyph unicode="&#212;" horiz-adv-x="801" d="M36 344q0 69 28 133q28 64 79 114q53 51 118.5 77q65.5 26 138.5 26q74 0 140.5 -26q66.5 -26 117.5 -77q107 -104 107 -253q0 -69 -27 -133q-27 -64 -79 -114q-108 -103 -259 -103q-73 0 -139.5 26.5q-66.5 26.5 -117.5 76.5q-53 51 -80 115.5q-27 64.5 -27 137.5zt0 0zM140 341q0 -53 19.5 -100q19.5 -47 56.5 -84q36 -37 84 -57q48 -20 100 -20q54 0 100.5 19.5q46.5 19.5 84.5 57.5q37 37 56.5 84q19.5 47 19.5 100q0 53 -19.5 99.5q-19.5 46.5 -57.5 84.5q-37 38 -84 57.5q-47 19.5 -100 19.5q-52 0 -99 -20q-47 -20 -85 -57q-37 -36 -56.5 -83.5q-19.5 -47.5 -19.5 -100.5zt0 0zM357 919h87l96 -170h-52l-87 118l-88 -118l-52 0z" />
<glyph unicode="&#213;" horiz-adv-x="801" d="M36 344q0 69 28 133q28 64 79 114q53 51 118.5 77q65.5 26 138.5 26q74 0 140.5 -26q66.5 -26 117.5 -77q107 -104 107 -253q0 -69 -27 -133q-27 -64 -79 -114q-108 -103 -259 -103q-73 0 -139.5 26.5q-66.5 26.5 -117.5 76.5q-53 51 -80 115.5q-27 64.5 -27 137.5zt0 0zM140 341q0 -53 19.5 -100q19.5 -47 56.5 -84q36 -37 84 -57q48 -20 100 -20q54 0 100.5 19.5q46.5 19.5 84.5 57.5q37 37 56.5 84q19.5 47 19.5 100q0 53 -19.5 99.5q-19.5 46.5 -57.5 84.5q-37 38 -84 57.5q-47 19.5 -100 19.5q-52 0 -99 -20q-47 -20 -85 -57q-37 -36 -56.5 -83.5q-19.5 -47.5 -19.5 -100.5zt0 0zM543 880q-12 -47 -37 -70.5q-25 -23.5 -60 -23.5q-9 0 -16.5 1.5q-7.5 1.5 -15.5 3.5l-39 13q-12 4 -26 4q-33 0 -47 -31l-43 0q21 91 97 91q17 0 29 -4l38 -14q17 -5 30 -5q35 0 47 35l43 0z" />
<glyph unicode="&#214;" horiz-adv-x="801" d="M36 344q0 69 28 133q28 64 79 114q53 51 118.5 77q65.5 26 138.5 26q74 0 140.5 -26q66.5 -26 117.5 -77q107 -104 107 -253q0 -69 -27 -133q-27 -64 -79 -114q-108 -103 -259 -103q-73 0 -139.5 26.5q-66.5 26.5 -117.5 76.5q-53 51 -80 115.5q-27 64.5 -27 137.5zt0 0zM140 341q0 -53 19.5 -100q19.5 -47 56.5 -84q36 -37 84 -57q48 -20 100 -20q54 0 100.5 19.5q46.5 19.5 84.5 57.5q37 37 56.5 84q19.5 47 19.5 100q0 53 -19.5 99.5q-19.5 46.5 -57.5 84.5q-37 38 -84 57.5q-47 19.5 -100 19.5q-52 0 -99 -20q-47 -20 -85 -57q-37 -36 -56.5 -83.5q-19.5 -47.5 -19.5 -100.5zt0 0zM259 824q0 20 15 35q15 15 35 15q20 0 35 -15q15 -15 15 -35q0 -20 -15 -35q-15 -15 -35 -15q-20 0 -35 15q-15 15 -15 35zt0 0zM443 824q0 20 15 35q15 15 35 15q20 0 35 -15q15 -15 15 -35q0 -20 -15 -35q-15 -15 -35 -15q-20 0 -35 15t-15 35z" />
<glyph unicode="&#215;" horiz-adv-x="833" d="M646 575l48 -48l-229 -229l229 -229l-48 -47l-229 228l-229 -228l-48 47l229 229l-229 229l48 48l229 -229z" />
<glyph unicode="&#216;" horiz-adv-x="801" d="M115 125q-79 85 -79 213q0 73 27 137.5q27 64.5 80 115.5q52 51 116.5 77.5q64.5 26.5 136.5 26.5q42 0 78 -7.5q36 -7.5 65.5 -19q29.5 -11.5 52.5 -26q23 -14.5 40 -28.5l88 84l52 -51l-89 -85q42 -46 62.5 -99q20.5 -53 20.5 -116q0 -151 -107 -256q-105 -103 -255 -103q-132 0 -239 83l-95 -91l-51 51zM237 140q68 -59 163 -59q55 0 102.5 20q47.5 20 82.5 55.5q35 35.5 55.5 84.5q20.5 49 20.5 107q0 42 -12.5 78q-12.5 36 -39.5 68zM559 544q-32 28 -72.5 43q-40.5 15 -86.5 15q-52 0 -99 -20q-47 -20 -85 -57q-37 -36 -56.5 -84q-19.5 -48 -19.5 -100q0 -43 11 -78.5q11 -35.5 36 -69.5z" />
<glyph unicode="&#217;" horiz-adv-x="726" d="M166 683v-392q0 -46 4 -80q4 -34 27 -60q60 -71 166 -71q45 0 81 12q36 12 62 34q26 22 40 53q14 31 14 68v436h97v-439q0 -57 -21 -104q-21 -47 -60 -80.5q-39 -33.5 -93 -52.5q-54 -19 -120 -19q-79 0 -141 27.5q-62 27.5 -105 80.5q-17 21 -27 43q-10 22 -14.5 45.5q-4.5 23.5 -5.5 49q-1 25.5 -1 53.5v396zM378 749l-137 170h87l102 -170z" />
<glyph unicode="&#218;" horiz-adv-x="726" d="M166 683v-392q0 -46 4 -80q4 -34 27 -60q60 -71 166 -71q45 0 81 12q36 12 62 34q26 22 40 53q14 31 14 68v436h97v-439q0 -57 -21 -104q-21 -47 -60 -80.5q-39 -33.5 -93 -52.5q-54 -19 -120 -19q-79 0 -141 27.5q-62 27.5 -105 80.5q-17 21 -27 43q-10 22 -14.5 45.5q-4.5 23.5 -5.5 49q-1 25.5 -1 53.5v396zM399 919h87l-137 -170l-52 0z" />
<glyph unicode="&#219;" horiz-adv-x="726" d="M166 683v-392q0 -46 4 -80q4 -34 27 -60q60 -71 166 -71q45 0 81 12q36 12 62 34q26 22 40 53q14 31 14 68v436h97v-439q0 -57 -21 -104q-21 -47 -60 -80.5q-39 -33.5 -93 -52.5q-54 -19 -120 -19q-79 0 -141 27.5q-62 27.5 -105 80.5q-17 21 -27 43q-10 22 -14.5 45.5q-4.5 23.5 -5.5 49q-1 25.5 -1 53.5v396zM320 919h87l96 -170h-52l-87 118l-88 -118l-52 0z" />
<glyph unicode="&#220;" horiz-adv-x="726" d="M166 683v-392q0 -46 4 -80q4 -34 27 -60q60 -71 166 -71q45 0 81 12q36 12 62 34q26 22 40 53q14 31 14 68v436h97v-439q0 -57 -21 -104q-21 -47 -60 -80.5q-39 -33.5 -93 -52.5q-54 -19 -120 -19q-79 0 -141 27.5q-62 27.5 -105 80.5q-17 21 -27 43q-10 22 -14.5 45.5q-4.5 23.5 -5.5 49q-1 25.5 -1 53.5v396zM223 824q0 20 15 35q15 15 35 15q20 0 35 -15q15 -15 15 -35q0 -20 -15 -35q-15 -15 -35 -15q-20 0 -35 15q-15 15 -15 35zt0 0zM407 824q0 20 15 35q15 15 35 15q20 0 35 -15q15 -15 15 -35q0 -20 -15 -35q-15 -15 -35 -15q-20 0 -35 15t-15 35z" />
<glyph unicode="&#221;" horiz-adv-x="583" d="M237 342l-264 341h116l199 -259l204 259h118l-274 -346v-337h-99zM327 919h87l-137 -170l-52 0z" />
<glyph unicode="&#222;" horiz-adv-x="542" d="M73 683h97v-142h116q109 0 168 -52q59 -52 59 -143q0 -91 -59 -142.5q-59 -51.5 -168 -51.5h-116v-152h-97zM276 239q69 0 102 24.5q33 24.5 33 82.5q0 57 -33 82q-33 25 -102 25h-106l0 -214z" />
<glyph unicode="&#223;" horiz-adv-x="502" d="M56 0v508q0 90 50 138q50 48 143 48q43 0 77.5 -12q34.5 -12 58.5 -33q24 -21 37 -50.5q13 -29.5 13 -65.5q0 -111 -90 -153q63 -26 92.5 -68q29.5 -42 29.5 -107q0 -102 -50.5 -158.5q-50.5 -56.5 -141.5 -56.5q-13 0 -26.5 1.5q-13.5 1.5 -27.5 3.5l0 90q31 -9 52 -9q45 0 72 32.5q27 32.5 27 89.5q0 69 -34.5 102.5q-34.5 33.5 -109.5 36.5l0 77h3q56 0 85 27q29 27 29 75q0 49 -28.5 78.5q-28.5 29.5 -73.5 29.5q-42 0 -68.5 -26.5q-26.5 -26.5 -26.5 -71.5l0 -526z" />
<glyph unicode="&#224;" horiz-adv-x="433" d="M282 37q-33 -23 -63.5 -34q-30.5 -11 -66.5 -11q-63 0 -96 29.5q-33 29.5 -33 79.5q0 95 149 145l107 36q1 5 1 9.5q0 4.5 0 9.5q0 41 -20 58.5q-20 17.5 -65 17.5q-77 0 -158 -63l0 89q35 29 78 43q43 14 91 14q90 0 128 -39q38 -39 38 -123v-191q0 -22 3.5 -33q3.5 -11 14.5 -11q11 0 22 7q11 7 25 18l0 -55q-48 -41 -101 -41q-26 0 -39 10.5q-13 10.5 -15 34.5zt0 0zM279 224q-81 -25 -120.5 -48.5q-39.5 -23.5 -39.5 -59.5q0 -28 18 -43q18 -15 50 -15q48 0 92 34zM227 515l-137 170h87l102 -170z" />
<glyph unicode="&#225;" horiz-adv-x="433" d="M282 37q-33 -23 -63.5 -34q-30.5 -11 -66.5 -11q-63 0 -96 29.5q-33 29.5 -33 79.5q0 95 149 145l107 36q1 5 1 9.5q0 4.5 0 9.5q0 41 -20 58.5q-20 17.5 -65 17.5q-77 0 -158 -63l0 89q35 29 78 43q43 14 91 14q90 0 128 -39q38 -39 38 -123v-191q0 -22 3.5 -33q3.5 -11 14.5 -11q11 0 22 7q11 7 25 18l0 -55q-48 -41 -101 -41q-26 0 -39 10.5q-13 10.5 -15 34.5zt0 0zM279 224q-81 -25 -120.5 -48.5q-39.5 -23.5 -39.5 -59.5q0 -28 18 -43q18 -15 50 -15q48 0 92 34zM247 685h87l-137 -170l-52 0z" />
<glyph unicode="&#226;" horiz-adv-x="433" d="M282 37q-33 -23 -63.5 -34q-30.5 -11 -66.5 -11q-63 0 -96 29.5q-33 29.5 -33 79.5q0 95 149 145l107 36q1 5 1 9.5q0 4.5 0 9.5q0 41 -20 58.5q-20 17.5 -65 17.5q-77 0 -158 -63l0 89q35 29 78 43q43 14 91 14q90 0 128 -39q38 -39 38 -123v-191q0 -22 3.5 -33q3.5 -11 14.5 -11q11 0 22 7q11 7 25 18l0 -55q-48 -41 -101 -41q-26 0 -39 10.5q-13 10.5 -15 34.5zt0 0zM279 224q-81 -25 -120.5 -48.5q-39.5 -23.5 -39.5 -59.5q0 -28 18 -43q18 -15 50 -15q48 0 92 34zM168 685h87l96 -170h-52l-87 118l-88 -118l-52 0z" />
<glyph unicode="&#227;" horiz-adv-x="433" d="M282 37q-33 -23 -63.5 -34q-30.5 -11 -66.5 -11q-63 0 -96 29.5q-33 29.5 -33 79.5q0 95 149 145l107 36q1 5 1 9.5q0 4.5 0 9.5q0 41 -20 58.5q-20 17.5 -65 17.5q-77 0 -158 -63l0 89q35 29 78 43q43 14 91 14q90 0 128 -39q38 -39 38 -123v-191q0 -22 3.5 -33q3.5 -11 14.5 -11q11 0 22 7q11 7 25 18l0 -55q-48 -41 -101 -41q-26 0 -39 10.5q-13 10.5 -15 34.5zt0 0zM279 224q-81 -25 -120.5 -48.5q-39.5 -23.5 -39.5 -59.5q0 -28 18 -43q18 -15 50 -15q48 0 92 34zM354 646q-12 -47 -37 -70.5q-25 -23.5 -60 -23.5q-9 0 -16.5 1.5q-7.5 1.5 -15.5 3.5l-39 13q-12 4 -26 4q-33 0 -47 -31l-43 0q21 91 97 91q17 0 29 -4l38 -14q17 -5 30 -5q35 0 47 35l43 0z" />
<glyph unicode="&#228;" horiz-adv-x="433" d="M282 37q-33 -23 -63.5 -34q-30.5 -11 -66.5 -11q-63 0 -96 29.5q-33 29.5 -33 79.5q0 95 149 145l107 36q1 5 1 9.5q0 4.5 0 9.5q0 41 -20 58.5q-20 17.5 -65 17.5q-77 0 -158 -63l0 89q35 29 78 43q43 14 91 14q90 0 128 -39q38 -39 38 -123v-191q0 -22 3.5 -33q3.5 -11 14.5 -11q11 0 22 7q11 7 25 18l0 -55q-48 -41 -101 -41q-26 0 -39 10.5q-13 10.5 -15 34.5zt0 0zM279 224q-81 -25 -120.5 -48.5q-39.5 -23.5 -39.5 -59.5q0 -28 18 -43q18 -15 50 -15q48 0 92 34zM70 590q0 20 15 35q15 15 35 15q20 0 35 -15q15 -15 15 -35q0 -20 -15 -35q-15 -15 -35 -15q-20 0 -35 15q-15 15 -15 35zt0 0zM254 590q0 20 15 35q15 15 35 15q20 0 35 -15q15 -15 15 -35q0 -20 -15 -35q-15 -15 -35 -15q-20 0 -35 15t-15 35z" />
<glyph unicode="&#229;" horiz-adv-x="433" d="M282 37q-33 -23 -63.5 -34q-30.5 -11 -66.5 -11q-63 0 -96 29.5q-33 29.5 -33 79.5q0 95 149 145l107 36q1 5 1 9.5q0 4.5 0 9.5q0 41 -20 58.5q-20 17.5 -65 17.5q-77 0 -158 -63l0 89q35 29 78 43q43 14 91 14q90 0 128 -39q38 -39 38 -123v-191q0 -22 3.5 -33q3.5 -11 14.5 -11q11 0 22 7q11 7 25 18l0 -55q-48 -41 -101 -41q-26 0 -39 10.5q-13 10.5 -15 34.5zt0 0zM279 224q-81 -25 -120.5 -48.5q-39.5 -23.5 -39.5 -59.5q0 -28 18 -43q18 -15 50 -15q48 0 92 34zM91 615q0 25 9.5 47q9.5 22 25.5 38.5q16 16.5 38 25.5q22 9 48 9q25 0 47.5 -9q22.5 -9 38.5 -25.5q16 -16.5 25.5 -38.5q9.5 -22 9.5 -47q0 -26 -9.5 -48q-9.5 -22 -25.5 -38q-16 -16 -38.5 -25.5q-22.5 -9.5 -47.5 -9.5q-26 0 -48 9.5q-22 9.5 -38 25.5q-16 16 -25.5 38q-9.5 22 -9.5 48zt0 0zM143 614q0 -29 20 -49.5q20 -20.5 49 -20.5q29 0 49.5 20.5q20.5 20.5 20.5 49.5q0 29 -20.5 49.5q-20.5 20.5 -49.5 20.5q-30 0 -49.5 -20.5t-19.5 -49.5z" />
<glyph unicode="&#230;" horiz-adv-x="746" d="M620 276q-5 50 -36.5 79.5q-31.5 29.5 -78.5 29.5q-105 0 -125 -109zM279 216q-160 -27 -160 -100q0 -28 18 -43q18 -15 50 -15q48 0 92 34zM336 67q-51 -38 -94.5 -58.5q-43.5 -20.5 -88.5 -20.5q-60 0 -94.5 32q-34.5 32 -34.5 82q0 68 62.5 109.5q62.5 41.5 192.5 64.5q1 5 1 10.5q0 5.5 0 10.5q0 42 -19 61q-19 19 -61 19q-82 0 -163 -63l0 89q35 28 80.5 43q45.5 15 96.5 15q89 0 137 -60q34 34 70.5 47.5q36.5 13.5 84.5 13.5q48 0 87 -16q39 -16 67 -47q28 -31 43 -75q15 -44 15 -100v-13h-338q4 -65 42.5 -101q38.5 -36 102.5 -36q54 0 100.5 20.5q46.5 20.5 84.5 44.5l0 -91q-89 -58 -193 -58q-57 0 -100 18t-81 59z" />
<glyph unicode="&#231;" horiz-adv-x="440" d="M121 -164q78 -18 121 -18q59 0 59 41q0 26 -16.5 37q-16.5 11 -51.5 11q-6 0 -12 0q-6 0 -13 -1l0 94q-82 20 -131 80.5q-49 60.5 -49 145.5q0 49 18.5 92q18.5 43 51.5 74.5q33 31.5 78.5 50q45.5 18.5 99.5 18.5q65 0 127 -28l0 -96q-62 37 -124 37q-36 0 -65 -11q-29 -11 -49.5 -31q-20.5 -20 -31.5 -47q-11 -27 -11 -59q0 -32 11 -59.5q11 -27.5 32 -47.5q21 -20 51 -31.5q30 -11.5 67 -11.5q66 0 127 31l0 -92q-68 -24 -130 -24q-10 0 -19 0.5q-9 0.5 -18 1.5l0 -45h11q111 0 111 -86q0 -89 -122 -89q-24 0 -54 5q-30 5 -68 15z" />
<glyph unicode="&#232;" horiz-adv-x="488" d="M362 274q-5 50 -36 79.5q-31 29.5 -78 29.5q-105 0 -125 -109zM453 48q-89 -58 -191 -58q-54 0 -97.5 17.5q-43.5 17.5 -73.5 49.5q-30 32 -46.5 77q-16.5 45 -16.5 99q0 50 16 92q16 42 45 72q29 30 69.5 46.5q40.5 16.5 90.5 16.5q48 0 87 -16q39 -16 67 -47q28 -31 43 -75q15 -44 15 -99v-13h-338q4 -65 42 -100.5q38 -35.5 102 -35.5q86 0 186 64zM259 515l-137 170h87l102 -170z" />
<glyph unicode="&#233;" horiz-adv-x="488" d="M362 274q-5 50 -36 79.5q-31 29.5 -78 29.5q-105 0 -125 -109zM453 48q-89 -58 -191 -58q-54 0 -97.5 17.5q-43.5 17.5 -73.5 49.5q-30 32 -46.5 77q-16.5 45 -16.5 99q0 50 16 92q16 42 45 72q29 30 69.5 46.5q40.5 16.5 90.5 16.5q48 0 87 -16q39 -16 67 -47q28 -31 43 -75q15 -44 15 -99v-13h-338q4 -65 42 -100.5q38 -35.5 102 -35.5q86 0 186 64zM279 685h87l-137 -170l-52 0z" />
<glyph unicode="&#234;" horiz-adv-x="488" d="M362 274q-5 50 -36 79.5q-31 29.5 -78 29.5q-105 0 -125 -109zM453 48q-89 -58 -191 -58q-54 0 -97.5 17.5q-43.5 17.5 -73.5 49.5q-30 32 -46.5 77q-16.5 45 -16.5 99q0 50 16 92q16 42 45 72q29 30 69.5 46.5q40.5 16.5 90.5 16.5q48 0 87 -16q39 -16 67 -47q28 -31 43 -75q15 -44 15 -99v-13h-338q4 -65 42 -100.5q38 -35.5 102 -35.5q86 0 186 64zM200 685h87l96 -170h-52l-87 118l-88 -118l-52 0z" />
<glyph unicode="&#235;" horiz-adv-x="488" d="M362 274q-5 50 -36 79.5q-31 29.5 -78 29.5q-105 0 -125 -109zM453 48q-89 -58 -191 -58q-54 0 -97.5 17.5q-43.5 17.5 -73.5 49.5q-30 32 -46.5 77q-16.5 45 -16.5 99q0 50 16 92q16 42 45 72q29 30 69.5 46.5q40.5 16.5 90.5 16.5q48 0 87 -16q39 -16 67 -47q28 -31 43 -75q15 -44 15 -99v-13h-338q4 -65 42 -100.5q38 -35.5 102 -35.5q86 0 186 64zM102 590q0 20 15 35q15 15 35 15q20 0 35 -15q15 -15 15 -35q0 -20 -15 -35q-15 -15 -35 -15q-20 0 -35 15q-15 15 -15 35zt0 0zM286 590q0 20 15 35q15 15 35 15q20 0 35 -15q15 -15 15 -35q0 -20 -15 -35q-15 -15 -35 -15q-20 0 -35 15t-15 35z" />
<glyph unicode="&#236;" horiz-adv-x="211" d="M60 451h90v-451h-90zM121 515l-137 170h87l102 -170z" />
<glyph unicode="&#237;" horiz-adv-x="211" d="M60 451h90v-451h-90zM141 685h87l-137 -170l-52 0z" />
<glyph unicode="&#238;" horiz-adv-x="211" d="M60 451h90v-451h-90zM62 685h87l96 -170h-52l-87 118l-88 -118l-52 0z" />
<glyph unicode="&#239;" horiz-adv-x="211" d="M60 451h90v-451h-90zM-36 590q0 20 15 35q15 15 35 15q20 0 35 -15q15 -15 15 -35q0 -20 -15 -35q-15 -15 -35 -15q-20 0 -35 15q-15 15 -15 35zt0 0zM148 590q0 20 15 35q15 15 35 15q20 0 35 -15q15 -15 15 -35q0 -20 -15 -35q-15 -15 -35 -15q-20 0 -35 15t-15 35z" />
<glyph unicode="&#240;" horiz-adv-x="535" d="M417 373q-14 93 -67 164l-154 -45l-19 55l130 38q-38 36 -78 65l54 44q29 -15 57 -35.5q28 -20.5 55 -47.5l113 31l22 -54l-95 -27q41 -61 60 -129q19 -68 19 -149q0 -70 -17.5 -124q-17.5 -54 -49.5 -91q-32 -37 -77.5 -56q-45.5 -19 -101.5 -19q-51 0 -94.5 17.5q-43.5 17.5 -76 47.5q-32.5 30 -51 70.5q-18.5 40.5 -18.5 87.5q0 46 18.5 86.5q18.5 40.5 50.5 71q32 30.5 76 48q44 17.5 95 17.5q86 0 149 -66zt0 0zM122 215q0 -29 11.5 -54.5q11.5 -25.5 31 -44q19.5 -18.5 46 -29.5q26.5 -11 56.5 -11q31 0 57.5 11q26.5 11 46 30q19.5 19 30.5 44q11 25 11 54q0 28 -11.5 53.5q-11.5 25.5 -31 44.5q-19.5 19 -46 30q-26.5 11 -56.5 11q-30 0 -56.5 -11q-26.5 -11 -46 -30q-19.5 -19 -31 -44.5t-11.5 -53.5z" />
<glyph unicode="&#241;" horiz-adv-x="499" d="M57 451h90v-55q33 32 66.5 47q33.5 15 72.5 15q74 0 116 -42q42 -42 42 -117v-299h-90v276q0 107 -95 107q-35 0 -61 -13.5q-26 -13.5 -51 -44.5l0 -325h-90zM392 646q-12 -47 -37 -70.5q-25 -23.5 -60 -23.5q-9 0 -16.5 1.5q-7.5 1.5 -15.5 3.5l-39 13q-12 4 -26 4q-33 0 -47 -31l-43 0q21 91 97 91q17 0 29 -4l38 -14q17 -5 30 -5q35 0 47 35l43 0z" />
<glyph unicode="&#242;" horiz-adv-x="535" d="M28 226q0 49 18.5 91.5q18.5 42.5 51 74.5q32.5 32 76 50.5q43.5 18.5 94.5 18.5q48 0 91 -18q43 -18 77 -51q35 -35 53 -76.5q18 -41.5 18 -89.5q0 -47 -18.5 -91q-18.5 -44 -52.5 -77q-70 -68 -168 -68q-50 0 -94 18.5q-44 18.5 -76.5 50q-32.5 31.5 -51 74.5q-18.5 43 -18.5 93zt0 0zM122 226q0 -32 11.5 -59.5q11.5 -27.5 31 -47.5q19.5 -20 46 -31.5q26.5 -11.5 56.5 -11.5q30 0 56.5 11.5q26.5 11.5 46 32q19.5 20.5 31 47.5q11.5 27 11.5 59q0 31 -11.5 58q-11.5 27 -31 47.5q-19.5 20.5 -46 32q-26.5 11.5 -56.5 11.5q-30 0 -56.5 -11.5q-26.5 -11.5 -46 -32q-19.5 -20.5 -31 -47.5q-11.5 -27 -11.5 -58zt0 0zM283 515l-137 170h87l102 -170z" />
<glyph unicode="&#243;" horiz-adv-x="535" d="M28 226q0 49 18.5 91.5q18.5 42.5 51 74.5q32.5 32 76 50.5q43.5 18.5 94.5 18.5q48 0 91 -18q43 -18 77 -51q35 -35 53 -76.5q18 -41.5 18 -89.5q0 -47 -18.5 -91q-18.5 -44 -52.5 -77q-70 -68 -168 -68q-50 0 -94 18.5q-44 18.5 -76.5 50q-32.5 31.5 -51 74.5q-18.5 43 -18.5 93zt0 0zM122 226q0 -32 11.5 -59.5q11.5 -27.5 31 -47.5q19.5 -20 46 -31.5q26.5 -11.5 56.5 -11.5q30 0 56.5 11.5q26.5 11.5 46 32q19.5 20.5 31 47.5q11.5 27 11.5 59q0 31 -11.5 58q-11.5 27 -31 47.5q-19.5 20.5 -46 32q-26.5 11.5 -56.5 11.5q-30 0 -56.5 -11.5q-26.5 -11.5 -46 -32q-19.5 -20.5 -31 -47.5q-11.5 -27 -11.5 -58zt0 0zM303 685h87l-137 -170l-52 0z" />
<glyph unicode="&#244;" horiz-adv-x="535" d="M28 226q0 49 18.5 91.5q18.5 42.5 51 74.5q32.5 32 76 50.5q43.5 18.5 94.5 18.5q48 0 91 -18q43 -18 77 -51q35 -35 53 -76.5q18 -41.5 18 -89.5q0 -47 -18.5 -91q-18.5 -44 -52.5 -77q-70 -68 -168 -68q-50 0 -94 18.5q-44 18.5 -76.5 50q-32.5 31.5 -51 74.5q-18.5 43 -18.5 93zt0 0zM122 226q0 -32 11.5 -59.5q11.5 -27.5 31 -47.5q19.5 -20 46 -31.5q26.5 -11.5 56.5 -11.5q30 0 56.5 11.5q26.5 11.5 46 32q19.5 20.5 31 47.5q11.5 27 11.5 59q0 31 -11.5 58q-11.5 27 -31 47.5q-19.5 20.5 -46 32q-26.5 11.5 -56.5 11.5q-30 0 -56.5 -11.5q-26.5 -11.5 -46 -32q-19.5 -20.5 -31 -47.5q-11.5 -27 -11.5 -58zt0 0zM224 685h87l96 -170h-52l-87 118l-88 -118l-52 0z" />
<glyph unicode="&#245;" horiz-adv-x="535" d="M28 226q0 49 18.5 91.5q18.5 42.5 51 74.5q32.5 32 76 50.5q43.5 18.5 94.5 18.5q48 0 91 -18q43 -18 77 -51q35 -35 53 -76.5q18 -41.5 18 -89.5q0 -47 -18.5 -91q-18.5 -44 -52.5 -77q-70 -68 -168 -68q-50 0 -94 18.5q-44 18.5 -76.5 50q-32.5 31.5 -51 74.5q-18.5 43 -18.5 93zt0 0zM122 226q0 -32 11.5 -59.5q11.5 -27.5 31 -47.5q19.5 -20 46 -31.5q26.5 -11.5 56.5 -11.5q30 0 56.5 11.5q26.5 11.5 46 32q19.5 20.5 31 47.5q11.5 27 11.5 59q0 31 -11.5 58q-11.5 27 -31 47.5q-19.5 20.5 -46 32q-26.5 11.5 -56.5 11.5q-30 0 -56.5 -11.5q-26.5 -11.5 -46 -32q-19.5 -20.5 -31 -47.5q-11.5 -27 -11.5 -58zt0 0zM410 646q-12 -47 -37 -70.5q-25 -23.5 -60 -23.5q-9 0 -16.5 1.5q-7.5 1.5 -15.5 3.5l-39 13q-12 4 -26 4q-33 0 -47 -31l-43 0q21 91 97 91q17 0 29 -4l38 -14q17 -5 30 -5q35 0 47 35l43 0z" />
<glyph unicode="&#246;" horiz-adv-x="535" d="M28 226q0 49 18.5 91.5q18.5 42.5 51 74.5q32.5 32 76 50.5q43.5 18.5 94.5 18.5q48 0 91 -18q43 -18 77 -51q35 -35 53 -76.5q18 -41.5 18 -89.5q0 -47 -18.5 -91q-18.5 -44 -52.5 -77q-70 -68 -168 -68q-50 0 -94 18.5q-44 18.5 -76.5 50q-32.5 31.5 -51 74.5q-18.5 43 -18.5 93zt0 0zM122 226q0 -32 11.5 -59.5q11.5 -27.5 31 -47.5q19.5 -20 46 -31.5q26.5 -11.5 56.5 -11.5q30 0 56.5 11.5q26.5 11.5 46 32q19.5 20.5 31 47.5q11.5 27 11.5 59q0 31 -11.5 58q-11.5 27 -31 47.5q-19.5 20.5 -46 32q-26.5 11.5 -56.5 11.5q-30 0 -56.5 -11.5q-26.5 -11.5 -46 -32q-19.5 -20.5 -31 -47.5q-11.5 -27 -11.5 -58zt0 0zM126 590q0 20 15 35q15 15 35 15q20 0 35 -15q15 -15 15 -35q0 -20 -15 -35q-15 -15 -35 -15q-20 0 -35 15q-15 15 -15 35zt0 0zM310 590q0 20 15 35q15 15 35 15q20 0 35 -15q15 -15 15 -35q0 -20 -15 -35q-15 -15 -35 -15q-20 0 -35 15t-15 35z" />
<glyph unicode="&#247;" horiz-adv-x="833" d="M417 539q25 0 43 -17.5q18 -17.5 18 -43.5q0 -25 -17.5 -43q-17.5 -18 -43.5 -18q-26 0 -43.5 17.5q-17.5 17.5 -17.5 43.5q0 26 18 43.5q18 17.5 43 17.5zt0 0zM709 264h-585v68h585zM417 179q25 0 43 -17.5q18 -17.5 18 -43.5q0 -25 -17.5 -43q-17.5 -18 -43.5 -18q-26 0 -43.5 17.5q-17.5 17.5 -17.5 43.5q0 26 18 43.5t43 17.5z" />
<glyph unicode="&#248;" horiz-adv-x="535" d="M186 103q19 -15 38 -21.5q19 -6.5 40 -6.5q32 0 59.5 12.5q27.5 12.5 48 34.5q20.5 22 32 50q11.5 28 11.5 60q0 36 -24 68zM353 345q-15 14 -36 22q-21 8 -50 8q-30 0 -57 -12q-27 -12 -46.5 -33q-19.5 -21 -31 -48q-11.5 -27 -11.5 -57q0 -46 24 -80zM78 81q-50 64 -50 145q0 49 18 91.5q18 42.5 50.5 74q32.5 31.5 76.5 50q44 18.5 96 18.5q55 0 91.5 -16.5q36.5 -16.5 54.5 -32.5l56 54l44 -46l-56 -55q25 -32 36.5 -63.5q11.5 -31.5 11.5 -69.5q0 -51 -18.5 -95q-18.5 -44 -51.5 -76q-33 -32 -78 -50.5q-45 -18.5 -99 -18.5q-39 0 -71.5 11q-32.5 11 -63.5 35l-60 -58l-45 48z" />
<glyph unicode="&#249;" horiz-adv-x="499" d="M352 55q-33 -32 -66.5 -47q-33.5 -15 -72.5 -15q-74 0 -116.5 42q-42.5 42 -42.5 117v299h91v-276q0 -107 95 -107q35 0 61 13.5q26 13.5 51 44.5l0 325h90v-451h-90v55zM265 515l-137 170h87l102 -170z" />
<glyph unicode="&#250;" horiz-adv-x="499" d="M352 55q-33 -32 -66.5 -47q-33.5 -15 -72.5 -15q-74 0 -116.5 42q-42.5 42 -42.5 117v299h91v-276q0 -107 95 -107q35 0 61 13.5q26 13.5 51 44.5l0 325h90v-451h-90v55zM285 685h87l-137 -170l-52 0z" />
<glyph unicode="&#251;" horiz-adv-x="499" d="M352 55q-33 -32 -66.5 -47q-33.5 -15 -72.5 -15q-74 0 -116.5 42q-42.5 42 -42.5 117v299h91v-276q0 -107 95 -107q35 0 61 13.5q26 13.5 51 44.5l0 325h90v-451h-90v55zM206 685h87l96 -170h-52l-87 118l-88 -118l-52 0z" />
<glyph unicode="&#252;" horiz-adv-x="499" d="M352 55q-33 -32 -66.5 -47q-33.5 -15 -72.5 -15q-74 0 -116.5 42q-42.5 42 -42.5 117v299h91v-276q0 -107 95 -107q35 0 61 13.5q26 13.5 51 44.5l0 325h90v-451h-90v55zM108 590q0 20 15 35q15 15 35 15q20 0 35 -15q15 -15 15 -35q0 -20 -15 -35q-15 -15 -35 -15q-20 0 -35 15q-15 15 -15 35zt0 0zM292 590q0 20 15 35q15 15 35 15q20 0 35 -15q15 -15 15 -35q0 -20 -15 -35q-15 -15 -35 -15q-20 0 -35 15t-15 35z" />
<glyph unicode="&#253;" horiz-adv-x="444" d="M-14 451h100l139 -264l130 264h98l-335 -678h-98l156 316zM257 685h87l-137 -170l-52 0z" />
<glyph unicode="&#254;" horiz-adv-x="517" d="M59 683h91v-257q50 35 116 35q48 0 89 -17q41 -17 70 -48q29 -31 45.5 -74.5q16.5 -43.5 16.5 -95.5q0 -53 -16.5 -96q-16.5 -43 -45.5 -74q-29 -31 -70 -48q-41 -17 -89 -17q-34 0 -62 8q-28 8 -54 26l0 -252h-91zM150 99q43 -31 93 -31q69 0 108.5 41.5q39.5 41.5 39.5 116.5q0 75 -39.5 116q-39.5 41 -108.5 41q-50 0 -93 -31z" />
<glyph unicode="&#255;" horiz-adv-x="444" d="M-14 451h100l139 -264l130 264h98l-335 -678h-98l156 316zM80 590q0 20 15 35q15 15 35 15q20 0 35 -15q15 -15 15 -35q0 -20 -15 -35q-15 -15 -35 -15q-20 0 -35 15q-15 15 -15 35zt0 0zM264 590q0 20 15 35q15 15 35 15q20 0 35 -15q15 -15 15 -35q0 -20 -15 -35q-15 -15 -35 -15q-20 0 -35 15t-15 35z" />
<glyph unicode="&#256;" horiz-adv-x="623" d="M274 683h71l300 -683h-101l-88 201h-291l-87 -201h-100zM416 289l-108 246l-105 -246zM185 836h252v-61l-252 0z" />
<glyph unicode="&#257;" horiz-adv-x="433" d="M282 37q-33 -23 -63.5 -34q-30.5 -11 -66.5 -11q-63 0 -96 29.5q-33 29.5 -33 79.5q0 95 149 145l107 36q1 5 1 9.5q0 4.5 0 9.5q0 41 -20 58.5q-20 17.5 -65 17.5q-77 0 -158 -63l0 89q35 29 78 43q43 14 91 14q90 0 128 -39q38 -39 38 -123v-191q0 -22 3.5 -33q3.5 -11 14.5 -11q11 0 22 7q11 7 25 18l0 -55q-48 -41 -101 -41q-26 0 -39 10.5q-13 10.5 -15 34.5zt0 0zM279 224q-81 -25 -120.5 -48.5q-39.5 -23.5 -39.5 -59.5q0 -28 18 -43q18 -15 50 -15q48 0 92 34zM82 622h252v-61l-252 0z" />
<glyph unicode="&#258;" horiz-adv-x="623" d="M274 683h71l300 -683h-101l-88 201h-291l-87 -201h-100zM416 289l-108 246l-105 -246zM217 880q3 -38 25.5 -54.5q22.5 -16.5 68.5 -16.5q46 0 68.5 16.5q22.5 16.5 25.5 54.5l44 0q-5 -69 -38 -101q-33 -32 -100 -32q-66 0 -99.5 32q-33.5 32 -38.5 101z" />
<glyph unicode="&#259;" horiz-adv-x="433" d="M282 37q-33 -23 -63.5 -34q-30.5 -11 -66.5 -11q-63 0 -96 29.5q-33 29.5 -33 79.5q0 95 149 145l107 36q1 5 1 9.5q0 4.5 0 9.5q0 41 -20 58.5q-20 17.5 -65 17.5q-77 0 -158 -63l0 89q35 29 78 43q43 14 91 14q90 0 128 -39q38 -39 38 -123v-191q0 -22 3.5 -33q3.5 -11 14.5 -11q11 0 22 7q11 7 25 18l0 -55q-48 -41 -101 -41q-26 0 -39 10.5q-13 10.5 -15 34.5zt0 0zM279 224q-81 -25 -120.5 -48.5q-39.5 -23.5 -39.5 -59.5q0 -28 18 -43q18 -15 50 -15q48 0 92 34zM118 666q3 -38 25.5 -54.5q22.5 -16.5 68.5 -16.5q46 0 68.5 16.5q22.5 16.5 25.5 54.5l44 0q-5 -69 -38 -101q-33 -32 -100 -32q-66 0 -99.5 32q-33.5 32 -38.5 101z" />
<glyph unicode="&#260;" horiz-adv-x="623" d="M274 683h71l300 -683h-66q-33 -30 -50 -56.5q-17 -26.5 -17 -52.5q0 -22 11 -31q11 -9 37 -9h39l-20 -63h-19q-108 0 -108 80q0 36 23.5 66q23.5 30 68.5 66l-88 201h-291l-87 -201h-100zM416 289l-108 246l-105 -246z" />
<glyph unicode="&#261;" horiz-adv-x="433" d="M282 37q-33 -23 -63.5 -34q-30.5 -11 -66.5 -11q-63 0 -96 29.5q-33 29.5 -33 79.5q0 95 149 145l107 36q1 5 1 9.5q0 4.5 0 9.5q0 41 -20 58.5q-20 17.5 -65 17.5q-77 0 -158 -63l0 89q35 29 78 43q43 14 91 14q90 0 128 -39q38 -39 38 -123v-191q0 -22 3.5 -33q3.5 -11 14.5 -11q11 0 22 7q11 7 25 18l0 -55q-12 -11 -24 -18q-14 -14 -26 -27.5q-12 -13.5 -23 -32.5q-11 -17 -17.5 -32q-6.5 -15 -6.5 -32q0 -22 11 -31q11 -9 37 -9h39l-20 -63h-19q-108 0 -108 80q0 20 8.5 39q8.5 19 22.5 37q23 28 55 52q-8 -2 -15 -3q-7 -1 -15 -1q-26 0 -39 10.5q-13 10.5 -15 34.5zt0 0zM279 224q-81 -25 -120.5 -48.5q-39.5 -23.5 -39.5 -59.5q0 -28 18 -43q18 -15 50 -15q48 0 92 34z" />
<glyph unicode="&#262;" horiz-adv-x="694" d="M655 52q-122 -64 -246 -64q-117 0 -212 61q-77 50 -119 127q-42 77 -42 168q0 69 28 133.5q28 64.5 79 113.5q109 103 273 103q71 0 128 -16.5q57 -16.5 105 -38.5l0 -106q-63 34 -119.5 51.5q-56.5 17.5 -113.5 17.5q-61 0 -112 -20.5q-51 -20.5 -87.5 -55.5q-36.5 -35 -56.5 -82.5q-20 -47.5 -20 -102.5q0 -55 20 -102.5q20 -47.5 56 -82.5q36 -35 85.5 -55q49.5 -20 108.5 -20q119 0 245 81zM492 919h87l-137 -170l-52 0z" />
<glyph unicode="&#263;" horiz-adv-x="440" d="M410 15q-68 -24 -130 -24q-56 0 -102.5 17.5q-46.5 17.5 -79.5 49q-33 31.5 -51.5 74.5q-18.5 43 -18.5 94q0 49 18.5 92q18.5 43 51.5 74.5q33 31.5 78.5 50q45.5 18.5 99.5 18.5q65 0 127 -28l0 -96q-62 37 -124 37q-36 0 -65 -11q-29 -11 -49.5 -31q-20.5 -20 -31.5 -47q-11 -27 -11 -59q0 -32 11 -59.5q11 -27.5 32 -47.5q21 -20 51 -31.5q30 -11.5 67 -11.5q66 0 127 31zM351 685h87l-137 -170l-52 0z" />
<glyph unicode="&#264;" horiz-adv-x="694" d="M655 52q-122 -64 -246 -64q-117 0 -212 61q-77 50 -119 127q-42 77 -42 168q0 69 28 133.5q28 64.5 79 113.5q109 103 273 103q71 0 128 -16.5q57 -16.5 105 -38.5l0 -106q-63 34 -119.5 51.5q-56.5 17.5 -113.5 17.5q-61 0 -112 -20.5q-51 -20.5 -87.5 -55.5q-36.5 -35 -56.5 -82.5q-20 -47.5 -20 -102.5q0 -55 20 -102.5q20 -47.5 56 -82.5q36 -35 85.5 -55q49.5 -20 108.5 -20q119 0 245 81zM363 919h87l96 -170h-52l-87 118l-88 -118l-52 0z" />
<glyph unicode="&#265;" horiz-adv-x="440" d="M410 15q-68 -24 -130 -24q-56 0 -102.5 17.5q-46.5 17.5 -79.5 49q-33 31.5 -51.5 74.5q-18.5 43 -18.5 94q0 49 18.5 92q18.5 43 51.5 74.5q33 31.5 78.5 50q45.5 18.5 99.5 18.5q65 0 127 -28l0 -96q-62 37 -124 37q-36 0 -65 -11q-29 -11 -49.5 -31q-20.5 -20 -31.5 -47q-11 -27 -11 -59q0 -32 11 -59.5q11 -27.5 32 -47.5q21 -20 51 -31.5q30 -11.5 67 -11.5q66 0 127 31zM221 685h87l96 -170h-52l-87 118l-88 -118l-52 0z" />
<glyph unicode="&#266;" horiz-adv-x="694" d="M655 52q-122 -64 -246 -64q-117 0 -212 61q-77 50 -119 127q-42 77 -42 168q0 69 28 133.5q28 64.5 79 113.5q109 103 273 103q71 0 128 -16.5q57 -16.5 105 -38.5l0 -106q-63 34 -119.5 51.5q-56.5 17.5 -113.5 17.5q-61 0 -112 -20.5q-51 -20.5 -87.5 -55.5q-36.5 -35 -56.5 -82.5q-20 -47.5 -20 -102.5q0 -55 20 -102.5q20 -47.5 56 -82.5q36 -35 85.5 -55q49.5 -20 108.5 -20q119 0 245 81zM359 824q0 23 15.5 38.5q15.5 15.5 38.5 15.5q23 0 38.5 -15.5q15.5 -15.5 15.5 -38.5q0 -23 -15.5 -38.5q-15.5 -15.5 -38.5 -15.5q-23 0 -38.5 15.5t-15.5 38.5z" />
<glyph unicode="&#267;" horiz-adv-x="440" d="M410 15q-68 -24 -130 -24q-56 0 -102.5 17.5q-46.5 17.5 -79.5 49q-33 31.5 -51.5 74.5q-18.5 43 -18.5 94q0 49 18.5 92q18.5 43 51.5 74.5q33 31.5 78.5 50q45.5 18.5 99.5 18.5q65 0 127 -28l0 -96q-62 37 -124 37q-36 0 -65 -11q-29 -11 -49.5 -31q-20.5 -20 -31.5 -47q-11 -27 -11 -59q0 -32 11 -59.5q11 -27.5 32 -47.5q21 -20 51 -31.5q30 -11.5 67 -11.5q66 0 127 31zM217 590q0 23 15.5 38.5q15.5 15.5 38.5 15.5q23 0 38.5 -15.5q15.5 -15.5 15.5 -38.5q0 -23 -15.5 -38.5q-15.5 -15.5 -38.5 -15.5q-23 0 -38.5 15.5t-15.5 38.5z" />
<glyph unicode="&#268;" horiz-adv-x="694" d="M655 52q-122 -64 -246 -64q-117 0 -212 61q-77 50 -119 127q-42 77 -42 168q0 69 28 133.5q28 64.5 79 113.5q109 103 273 103q71 0 128 -16.5q57 -16.5 105 -38.5l0 -106q-63 34 -119.5 51.5q-56.5 17.5 -113.5 17.5q-61 0 -112 -20.5q-51 -20.5 -87.5 -55.5q-36.5 -35 -56.5 -82.5q-20 -47.5 -20 -102.5q0 -55 20 -102.5q20 -47.5 56 -82.5q36 -35 85.5 -55q49.5 -20 108.5 -20q119 0 245 81zM329 919l88 -119l87 119h52l-96 -170h-87l-96 170z" />
<glyph unicode="&#269;" horiz-adv-x="440" d="M410 15q-68 -24 -130 -24q-56 0 -102.5 17.5q-46.5 17.5 -79.5 49q-33 31.5 -51.5 74.5q-18.5 43 -18.5 94q0 49 18.5 92q18.5 43 51.5 74.5q33 31.5 78.5 50q45.5 18.5 99.5 18.5q65 0 127 -28l0 -96q-62 37 -124 37q-36 0 -65 -11q-29 -11 -49.5 -31q-20.5 -20 -31.5 -47q-11 -27 -11 -59q0 -32 11 -59.5q11 -27.5 32 -47.5q21 -20 51 -31.5q30 -11.5 67 -11.5q66 0 127 31zM192 685l88 -119l87 119h52l-96 -170h-87l-96 170z" />
<glyph unicode="&#270;" horiz-adv-x="741" d="M324 683q69 0 124.5 -12.5q55.5 -12.5 105.5 -46.5q69 -47 107 -120q38 -73 38 -162q0 -89 -38 -162.5q-38 -73.5 -107 -120.5q-48 -33 -104.5 -46q-56.5 -13 -125.5 -13h-251v683zM170 591v-499h154q65 0 115.5 18q50.5 18 85 50.5q34.5 32.5 52.5 78.5q18 46 18 102q0 56 -18 102q-18 46 -52.5 79q-34.5 33 -85 51q-50.5 18 -115.5 18zM227 919l88 -119l87 119h52l-96 -170h-87l-96 170z" />
<glyph unicode="&#271;" horiz-adv-x="598" d="M368 25q-26 -18 -54.5 -26q-28.5 -8 -62.5 -8q-48 0 -89 17q-41 17 -70 48q-29 31 -45.5 74q-16.5 43 -16.5 96q0 52 16.5 95.5q16.5 43.5 45.5 74.5q29 31 70 48q41 17 89 17q67 0 117 -35l0 257h90v-683h-90zM368 354q-43 31 -94 31q-69 0 -108.5 -41.5q-39.5 -41.5 -39.5 -116.5q0 -75 39.5 -116.5q39.5 -41.5 108.5 -41.5q51 0 94 31zM545 587q-20 8 -31.5 21q-11.5 13 -11.5 33q0 25 16.5 39.5q16.5 14.5 39.5 14.5q24 0 42 -17.5q18 -17.5 18 -61.5q0 -26 -9 -48.5q-9 -22.5 -24.5 -40.5q-15.5 -18 -35.5 -31q-20 -13 -42 -21l-1 18q20 17 29.5 34.5q9.5 17.5 9.5 46.5l0 13z" />
<glyph unicode="&#272;" horiz-adv-x="748" d="M331 683q69 0 124.5 -12.5q55.5 -12.5 105.5 -46.5q69 -47 107 -120q38 -73 38 -162q0 -89 -38.5 -162.5q-38.5 -73.5 -107.5 -120.5q-48 -33 -104 -46q-56 -13 -125 -13h-251v304h-80v78h80v301zM177 590v-208h178v-78h-178v-211h154q65 0 115.5 18q50.5 18 85 50.5q34.5 32.5 52.5 78q18 45.5 18 101.5q0 56 -18 102q-18 46 -52.5 78.5q-34.5 32.5 -85 50.5q-50.5 18 -115.5 18z" />
<glyph unicode="&#273;" horiz-adv-x="517" d="M220 620h148v63h90v-63h58v-68h-58v-552h-90v25q-26 -18 -54.5 -26q-28.5 -8 -62.5 -8q-48 0 -89 17q-41 17 -70 48q-29 31 -45.5 74q-16.5 43 -16.5 96q0 52 16.5 95.5q16.5 43.5 45.5 74.5q29 31 70 48q41 17 89 17q67 0 117 -35l0 126h-148zM368 354q-43 31 -94 31q-69 0 -108.5 -41.5q-39.5 -41.5 -39.5 -116.5q0 -75 39.5 -116.5q39.5 -41.5 108.5 -41.5q51 0 94 31z" />
<glyph unicode="&#274;" horiz-adv-x="544" d="M73 683h411v-88h-314v-206h305v-88h-305v-213h324v-88h-421zM158 836h252v-61l-252 0z" />
<glyph unicode="&#275;" horiz-adv-x="488" d="M362 274q-5 50 -36 79.5q-31 29.5 -78 29.5q-105 0 -125 -109zM453 48q-89 -58 -191 -58q-54 0 -97.5 17.5q-43.5 17.5 -73.5 49.5q-30 32 -46.5 77q-16.5 45 -16.5 99q0 50 16 92q16 42 45 72q29 30 69.5 46.5q40.5 16.5 90.5 16.5q48 0 87 -16q39 -16 67 -47q28 -31 43 -75q15 -44 15 -99v-13h-338q4 -65 42 -100.5q38 -35.5 102 -35.5q86 0 186 64zM120 622h252v-61l-252 0z" />
<glyph unicode="&#278;" horiz-adv-x="544" d="M73 683h411v-88h-314v-206h305v-88h-305v-213h324v-88h-421zM228 824q0 23 15.5 38.5q15.5 15.5 38.5 15.5q23 0 38.5 -15.5q15.5 -15.5 15.5 -38.5q0 -23 -15.5 -38.5q-15.5 -15.5 -38.5 -15.5q-23 0 -38.5 15.5t-15.5 38.5z" />
<glyph unicode="&#279;" horiz-adv-x="488" d="M362 274q-5 50 -36 79.5q-31 29.5 -78 29.5q-105 0 -125 -109zM453 48q-89 -58 -191 -58q-54 0 -97.5 17.5q-43.5 17.5 -73.5 49.5q-30 32 -46.5 77q-16.5 45 -16.5 99q0 50 16 92q16 42 45 72q29 30 69.5 46.5q40.5 16.5 90.5 16.5q48 0 87 -16q39 -16 67 -47q28 -31 43 -75q15 -44 15 -99v-13h-338q4 -65 42 -100.5q38 -35.5 102 -35.5q86 0 186 64zM200 590q0 23 15.5 38.5q15.5 15.5 38.5 15.5q23 0 38.5 -15.5q15.5 -15.5 15.5 -38.5q0 -23 -15.5 -38.5q-15.5 -15.5 -38.5 -15.5q-23 0 -38.5 15.5t-15.5 38.5z" />
<glyph unicode="&#280;" horiz-adv-x="544" d="M73 683h411v-88h-314v-206h305v-88h-305v-213h324v-88h-60q-33 -30 -50 -56.5q-17 -26.5 -17 -52.5q0 -22 11 -31q11 -9 37 -9h39l-20 -63h-19q-108 0 -108 80q0 36 23.5 66q23.5 30 68.5 66l-326 0z" />
<glyph unicode="&#281;" horiz-adv-x="488" d="M409 21q-8 -8 -19.5 -23.5q-11.5 -15.5 -21.5 -32.5q-11 -20 -17.5 -39q-6.5 -19 -6.5 -35q0 -22 11 -31q11 -9 37 -9h39l-20 -63h-19q-108 0 -108 80q0 23 10.5 44.5q10.5 21.5 24.5 40.5q12 17 24 29.5q12 12.5 21 21.5q-23 -7 -49.5 -10.5q-26.5 -3.5 -52.5 -3.5q-54 0 -97.5 17.5q-43.5 17.5 -73.5 49.5q-30 32 -46.5 77q-16.5 45 -16.5 99q0 50 16 92q16 42 45 72q29 30 69.5 46.5q40.5 16.5 90.5 16.5q48 0 87 -16q39 -16 67 -47q28 -31 43 -75q15 -44 15 -99v-13h-338q4 -65 42 -100.5q38 -35.5 102 -35.5q86 0 186 64l0 -90zM362 274q-5 50 -36 79.5q-31 29.5 -78 29.5q-105 0 -125 -109z" />
<glyph unicode="&#282;" horiz-adv-x="544" d="M73 683h411v-88h-314v-206h305v-88h-305v-213h324v-88h-421zM196 919l88 -119l87 119h52l-96 -170h-87l-96 170z" />
<glyph unicode="&#283;" horiz-adv-x="488" d="M362 274q-5 50 -36 79.5q-31 29.5 -78 29.5q-105 0 -125 -109zM453 48q-89 -58 -191 -58q-54 0 -97.5 17.5q-43.5 17.5 -73.5 49.5q-30 32 -46.5 77q-16.5 45 -16.5 99q0 50 16 92q16 42 45 72q29 30 69.5 46.5q40.5 16.5 90.5 16.5q48 0 87 -16q39 -16 67 -47q28 -31 43 -75q15 -44 15 -99v-13h-338q4 -65 42 -100.5q38 -35.5 102 -35.5q86 0 186 64zM161 685l88 -119l87 119h52l-96 -170h-87l-96 170z" />
<glyph unicode="&#284;" horiz-adv-x="708" d="M655 46q-66 -29 -126 -43.5q-60 -14.5 -117 -14.5q-124 0 -215 60q-77 50 -119 127q-42 77 -42 169q0 69 28 133.5q28 64.5 79 113.5q55 53 122.5 78q67.5 25 151.5 25q113 0 232 -55l0 -106q-63 34 -119.5 51.5q-56.5 17.5 -113.5 17.5q-61 0 -112 -20.5q-51 -20.5 -87.5 -55.5q-36.5 -35 -56.5 -82.5q-20 -47.5 -20 -102.5q0 -55 20 -102.5q20 -47.5 56 -82.5q36 -35 86 -55q50 -20 109 -20q69 0 143 31l0 133h-128v90h229zM386 919h87l96 -170h-52l-87 118l-88 -118l-52 0z" />
<glyph unicode="&#285;" horiz-adv-x="447" d="M216 375q-43 0 -68.5 -24.5q-25.5 -24.5 -25.5 -61.5q0 -40 24.5 -62q24.5 -22 69.5 -22q45 0 70.5 22.5q25.5 22.5 25.5 61.5q0 37 -26.5 61.5q-26.5 24.5 -69.5 24.5zt0 0zM137 144q-51 16 -77.5 52q-26.5 36 -26.5 89q0 166 225 166h179v-73h-76q36 -39 36 -92q0 -57 -34.5 -96.5q-34.5 -39.5 -92.5 -50.5q-26 -5 -45.5 -7.5q-19.5 -2.5 -33.5 -6.5q-14 -4 -21 -10.5q-7 -6.5 -7 -18.5q0 -11 9 -18q9 -7 27 -12.5q18 -5.5 45 -11q27 -5.5 63 -12.5q133 -27 133 -128q0 -69 -56.5 -105q-56.5 -36 -167.5 -36q-109 0 -164.5 35q-55.5 35 -55.5 101q0 97 130 121q-50 23 -50 55q0 34 61 59zt0 0zM84 -84q0 -67 131 -67q66 0 100 17q34 17 34 45q0 64 -161 64q-48 0 -76 -17.5q-28 -17.5 -28 -41.5zt0 0zM200 685h87l96 -170h-52l-87 118l-88 -118l-52 0z" />
<glyph unicode="&#286;" horiz-adv-x="708" d="M655 46q-66 -29 -126 -43.5q-60 -14.5 -117 -14.5q-124 0 -215 60q-77 50 -119 127q-42 77 -42 169q0 69 28 133.5q28 64.5 79 113.5q55 53 122.5 78q67.5 25 151.5 25q113 0 232 -55l0 -106q-63 34 -119.5 51.5q-56.5 17.5 -113.5 17.5q-61 0 -112 -20.5q-51 -20.5 -87.5 -55.5q-36.5 -35 -56.5 -82.5q-20 -47.5 -20 -102.5q0 -55 20 -102.5q20 -47.5 56 -82.5q36 -35 86 -55q50 -20 109 -20q69 0 143 31l0 133h-128v90h229zM330 880q3 -38 25.5 -54.5q22.5 -16.5 68.5 -16.5q46 0 68.5 16.5q22.5 16.5 25.5 54.5l44 0q-5 -69 -38 -101q-33 -32 -100 -32q-66 0 -99.5 32q-33.5 32 -38.5 101z" />
<glyph unicode="&#287;" horiz-adv-x="447" d="M216 375q-43 0 -68.5 -24.5q-25.5 -24.5 -25.5 -61.5q0 -40 24.5 -62q24.5 -22 69.5 -22q45 0 70.5 22.5q25.5 22.5 25.5 61.5q0 37 -26.5 61.5q-26.5 24.5 -69.5 24.5zt0 0zM137 144q-51 16 -77.5 52q-26.5 36 -26.5 89q0 166 225 166h179v-73h-76q36 -39 36 -92q0 -57 -34.5 -96.5q-34.5 -39.5 -92.5 -50.5q-26 -5 -45.5 -7.5q-19.5 -2.5 -33.5 -6.5q-14 -4 -21 -10.5q-7 -6.5 -7 -18.5q0 -11 9 -18q9 -7 27 -12.5q18 -5.5 45 -11q27 -5.5 63 -12.5q133 -27 133 -128q0 -69 -56.5 -105q-56.5 -36 -167.5 -36q-109 0 -164.5 35q-55.5 35 -55.5 101q0 97 130 121q-50 23 -50 55q0 34 61 59zt0 0zM84 -84q0 -67 131 -67q66 0 100 17q34 17 34 45q0 64 -161 64q-48 0 -76 -17.5q-28 -17.5 -28 -41.5zt0 0zM139 666q3 -38 25.5 -54.5q22.5 -16.5 68.5 -16.5q46 0 68.5 16.5q22.5 16.5 25.5 54.5l44 0q-5 -69 -38 -101q-33 -32 -100 -32q-66 0 -99.5 32q-33.5 32 -38.5 101z" />
<glyph unicode="&#288;" horiz-adv-x="708" d="M655 46q-66 -29 -126 -43.5q-60 -14.5 -117 -14.5q-124 0 -215 60q-77 50 -119 127q-42 77 -42 169q0 69 28 133.5q28 64.5 79 113.5q55 53 122.5 78q67.5 25 151.5 25q113 0 232 -55l0 -106q-63 34 -119.5 51.5q-56.5 17.5 -113.5 17.5q-61 0 -112 -20.5q-51 -20.5 -87.5 -55.5q-36.5 -35 -56.5 -82.5q-20 -47.5 -20 -102.5q0 -55 20 -102.5q20 -47.5 56 -82.5q36 -35 86 -55q50 -20 109 -20q69 0 143 31l0 133h-128v90h229zM359 824q0 23 15.5 38.5q15.5 15.5 38.5 15.5q23 0 38.5 -15.5q15.5 -15.5 15.5 -38.5q0 -23 -15.5 -38.5q-15.5 -15.5 -38.5 -15.5q-23 0 -38.5 15.5t-15.5 38.5z" />
<glyph unicode="&#289;" horiz-adv-x="447" d="M216 375q-43 0 -68.5 -24.5q-25.5 -24.5 -25.5 -61.5q0 -40 24.5 -62q24.5 -22 69.5 -22q45 0 70.5 22.5q25.5 22.5 25.5 61.5q0 37 -26.5 61.5q-26.5 24.5 -69.5 24.5zt0 0zM137 144q-51 16 -77.5 52q-26.5 36 -26.5 89q0 166 225 166h179v-73h-76q36 -39 36 -92q0 -57 -34.5 -96.5q-34.5 -39.5 -92.5 -50.5q-26 -5 -45.5 -7.5q-19.5 -2.5 -33.5 -6.5q-14 -4 -21 -10.5q-7 -6.5 -7 -18.5q0 -11 9 -18q9 -7 27 -12.5q18 -5.5 45 -11q27 -5.5 63 -12.5q133 -27 133 -128q0 -69 -56.5 -105q-56.5 -36 -167.5 -36q-109 0 -164.5 35q-55.5 35 -55.5 101q0 97 130 121q-50 23 -50 55q0 34 61 59zt0 0zM84 -84q0 -67 131 -67q66 0 100 17q34 17 34 45q0 64 -161 64q-48 0 -76 -17.5q-28 -17.5 -28 -41.5zt0 0zM180 590q0 23 15.5 38.5q15.5 15.5 38.5 15.5q23 0 38.5 -15.5q15.5 -15.5 15.5 -38.5q0 -23 -15.5 -38.5q-15.5 -15.5 -38.5 -15.5q-23 0 -38.5 15.5t-15.5 38.5z" />
<glyph unicode="&#290;" horiz-adv-x="708" d="M655 46q-66 -29 -126 -43.5q-60 -14.5 -117 -14.5q-124 0 -215 60q-77 50 -119 127q-42 77 -42 169q0 69 28 133.5q28 64.5 79 113.5q55 53 122.5 78q67.5 25 151.5 25q113 0 232 -55l0 -106q-63 34 -119.5 51.5q-56.5 17.5 -113.5 17.5q-61 0 -112 -20.5q-51 -20.5 -87.5 -55.5q-36.5 -35 -56.5 -82.5q-20 -47.5 -20 -102.5q0 -55 20 -102.5q20 -47.5 56 -82.5q36 -35 86 -55q50 -20 109 -20q69 0 143 31l0 133h-128v90h229zM396 -162q-20 8 -31.5 21q-11.5 13 -11.5 33q0 25 16.5 41.5q16.5 16.5 39.5 16.5q26 0 44 -20.5q18 -20.5 18 -64.5q0 -26 -9.5 -49q-9.5 -23 -25 -42q-15.5 -19 -36 -32.5q-20.5 -13.5 -42.5 -21.5l-1 18q20 17 29.5 37.5q9.5 20.5 9.5 49.5l0 13z" />
<glyph unicode="&#291;" horiz-adv-x="447" d="M251 632q24 -6 35.5 -20q11.5 -14 11.5 -34q0 -25 -16.5 -41.5q-16.5 -16.5 -39.5 -16.5q-26 0 -44 18.5q-18 18.5 -18 60.5q0 26 11.5 51q11.5 25 29.5 45.5q18 20.5 39.5 35q21.5 14.5 42.5 19.5l1 -18q-21 -12 -37 -40q-16 -28 -16 -57zM216 375q-43 0 -68.5 -24.5q-25.5 -24.5 -25.5 -61.5q0 -40 24.5 -62q24.5 -22 69.5 -22q45 0 70.5 22.5q25.5 22.5 25.5 61.5q0 37 -26.5 61.5q-26.5 24.5 -69.5 24.5zt0 0zM137 144q-51 16 -77.5 52q-26.5 36 -26.5 89q0 166 225 166h179v-73h-76q36 -39 36 -92q0 -57 -34.5 -96.5q-34.5 -39.5 -92.5 -50.5q-26 -5 -45.5 -7.5q-19.5 -2.5 -33.5 -6.5q-14 -4 -21 -10.5q-7 -6.5 -7 -18.5q0 -11 9 -18q9 -7 27 -12.5q18 -5.5 45 -11q27 -5.5 63 -12.5q133 -27 133 -128q0 -69 -56.5 -105q-56.5 -36 -167.5 -36q-109 0 -164.5 35q-55.5 35 -55.5 101q0 97 130 121q-50 23 -50 55q0 34 61 59zt0 0zM84 -84q0 -67 131 -67q66 0 100 17q34 17 34 45q0 64 -161 64q-48 0 -76 -17.5t-28 -41.5z" />
<glyph unicode="&#292;" horiz-adv-x="734" d="M73 683h97v-294h394v294h97v-683h-97v297h-394v-297h-97zM324 919h87l96 -170h-52l-87 118l-88 -118l-52 0z" />
<glyph unicode="&#293;" horiz-adv-x="501" d="M59 683h90v-287q33 32 66.5 47q33.5 15 72.5 15q74 0 116.5 -42q42.5 -42 42.5 -117v-299h-91v276q0 55 -22.5 81q-22.5 26 -71.5 26q-35 0 -62 -13.5q-27 -13.5 -51 -44.5l0 -325h-90zM62 867h87l96 -170h-52l-87 118l-88 -118l-52 0z" />
<glyph unicode="&#294;" horiz-adv-x="734" d="M0 620h73v63h97v-63h394v63h97v-63h73v-72h-73v-548h-97v297h-394v-297h-97v548h-73zM564 389v159h-394l0 -159z" />
<glyph unicode="&#295;" horiz-adv-x="501" d="M-10 620h69v63h90v-63h167v-68h-167v-156q33 32 66.5 47q33.5 15 72.5 15q74 0 116.5 -42q42.5 -42 42.5 -117v-299h-91v276q0 55 -22.5 81q-22.5 26 -71.5 26q-35 0 -62 -13.5q-27 -13.5 -51 -44.5l0 -325h-90v552l-69 0z" />
<glyph unicode="&#298;" horiz-adv-x="250" d="M76 683h98v-683h-98zM-1 836h252v-61l-252 0z" />
<glyph unicode="&#299;" horiz-adv-x="211" d="M60 451h90v-451h-90zM-21 622h252v-61l-252 0z" />
<glyph unicode="&#302;" horiz-adv-x="250" d="M76 683h98v-683q-33 -30 -50 -56.5q-17 -26.5 -17 -52.5q0 -22 11 -31q11 -9 37 -9h39l-20 -63h-19q-108 0 -108 80q0 36 23.5 66q23.5 30 68.5 66l-63 0z" />
<glyph unicode="&#303;" horiz-adv-x="210" d="M60 451h90v-451q-33 -30 -50 -56.5q-17 -26.5 -17 -52.5q0 -22 11 -31q11 -9 37 -9h39l-20 -63h-19q-108 0 -108 80q0 36 23.5 66q23.5 30 68.5 66l-55 0zM53 584q0 22 15 37q15 15 37 15q22 0 37 -15q15 -15 15 -37q0 -22 -15 -37q-15 -15 -37 -15q-22 0 -37 15t-15 37z" />
<glyph unicode="&#304;" horiz-adv-x="250" d="M76 683h98v-683h-98zM71 824q0 23 15.5 38.5q15.5 15.5 38.5 15.5q23 0 38.5 -15.5q15.5 -15.5 15.5 -38.5q0 -23 -15.5 -38.5q-15.5 -15.5 -38.5 -15.5q-23 0 -38.5 15.5t-15.5 38.5z" />
<glyph unicode="&#305;" horiz-adv-x="211" d="M60 451h90v-451l-90 0z" />
<glyph unicode="&#308;" horiz-adv-x="252" d="M-46 -140q38 0 62 6.5q24 6.5 38 22q14 15.5 19.5 41q5.5 25.5 5.5 63.5v690h97v-665q0 -36 -1.5 -66.5q-1.5 -30.5 -8 -56.5q-6.5 -26 -19.5 -48q-13 -22 -36 -40q-23 -18 -57 -27.5q-34 -9.5 -76 -9.5h-17l-22 90zM85 919h87l96 -170h-52l-87 118l-88 -118l-52 0z" />
<glyph unicode="&#309;" horiz-adv-x="210" d="M-2 -163q25 10 42 31q14 18 17 35q3 17 3 36v512h90v-504q0 -25 -2 -47.5q-2 -22.5 -10 -43.5q-8 -21 -27.5 -44q-19.5 -23 -56.5 -39l-56 64zM61 685h87l96 -170h-52l-87 118l-88 -118l-52 0z" />
<glyph unicode="&#310;" horiz-adv-x="611" d="M76 683h98v-307l285 307h123l-297 -320l354 -363h-136l-329 338v-338h-98zM320 -162q-20 8 -31.5 21q-11.5 13 -11.5 33q0 25 16.5 41.5q16.5 16.5 39.5 16.5q26 0 44 -20.5q18 -20.5 18 -64.5q0 -26 -9.5 -49q-9.5 -23 -25 -42q-15.5 -19 -36 -32.5q-20.5 -13.5 -42.5 -21.5l-1 18q20 17 29.5 37.5q9.5 20.5 9.5 49.5l0 13z" />
<glyph unicode="&#311;" horiz-adv-x="483" d="M60 683h90v-683h-90zM269 245l227 -245h-123l-220 240l194 211h111zM243 -162q-20 8 -31.5 21q-11.5 13 -11.5 33q0 25 16.5 41.5q16.5 16.5 39.5 16.5q26 0 44 -20.5q18 -20.5 18 -64.5q0 -26 -9.5 -49q-9.5 -23 -25 -42q-15.5 -19 -36 -32.5q-20.5 -13.5 -42.5 -21.5l-1 18q20 17 29.5 37.5q9.5 20.5 9.5 49.5l0 13z" />
<glyph unicode="&#313;" horiz-adv-x="505" d="M76 683h97v-595h325v-88h-422zM207 919h87l-137 -170l-52 0z" />
<glyph unicode="&#314;" horiz-adv-x="211" d="M60 683h90v-683h-90zM180 919h87l-137 -170l-52 0z" />
<glyph unicode="&#315;" horiz-adv-x="505" d="M76 683h97v-595h325v-88h-422zM281 -162q-20 8 -31.5 21q-11.5 13 -11.5 33q0 25 16.5 41.5q16.5 16.5 39.5 16.5q26 0 44 -20.5q18 -20.5 18 -64.5q0 -26 -9.5 -49q-9.5 -23 -25 -42q-15.5 -19 -36 -32.5q-20.5 -13.5 -42.5 -21.5l-1 18q20 17 29.5 37.5q9.5 20.5 9.5 49.5l0 13z" />
<glyph unicode="&#316;" horiz-adv-x="211" d="M60 683h90v-683h-90zM91 -162q-20 8 -31.5 21q-11.5 13 -11.5 33q0 25 16.5 41.5q16.5 16.5 39.5 16.5q26 0 44 -20.5q18 -20.5 18 -64.5q0 -26 -9.5 -49q-9.5 -23 -25 -42q-15.5 -19 -36 -32.5q-20.5 -13.5 -42.5 -21.5l-1 18q20 17 29.5 37.5q9.5 20.5 9.5 49.5l0 13z" />
<glyph unicode="&#317;" horiz-adv-x="505" d="M76 683h97v-595h325v-88h-422zM298 587q-20 8 -31.5 21q-11.5 13 -11.5 33q0 25 16.5 39.5q16.5 14.5 39.5 14.5q24 0 42 -17.5q18 -17.5 18 -61.5q0 -26 -9 -48.5q-9 -22.5 -24.5 -40.5q-15.5 -18 -35.5 -31q-20 -13 -42 -21l-1 18q20 17 29.5 34.5q9.5 17.5 9.5 46.5l0 13z" />
<glyph unicode="&#318;" horiz-adv-x="291" d="M60 683h90v-683h-90zM238 587q-20 8 -31.5 21q-11.5 13 -11.5 33q0 25 16.5 39.5q16.5 14.5 39.5 14.5q24 0 42 -17.5q18 -17.5 18 -61.5q0 -26 -9 -48.5q-9 -22.5 -24.5 -40.5q-15.5 -18 -35.5 -31q-20 -13 -42 -21l-1 18q20 17 29.5 34.5q9.5 17.5 9.5 46.5l0 13z" />
<glyph unicode="&#319;" horiz-adv-x="505" d="M76 683h97v-595h325v-88h-422zM327 350q0 23 15.5 38.5q15.5 15.5 38.5 15.5q23 0 38.5 -15.5q15.5 -15.5 15.5 -38.5q0 -23 -15.5 -38.5q-15.5 -15.5 -38.5 -15.5q-23 0 -38.5 15.5t-15.5 38.5z" />
<glyph unicode="&#320;" horiz-adv-x="357" d="M60 683h90v-683h-90zM228 350q0 23 15.5 38.5q15.5 15.5 38.5 15.5q23 0 38.5 -15.5q15.5 -15.5 15.5 -38.5q0 -23 -15.5 -38.5q-15.5 -15.5 -38.5 -15.5q-23 0 -38.5 15.5t-15.5 38.5z" />
<glyph unicode="&#321;" horiz-adv-x="512" d="M83 261l-83 -57v90l83 57v332h97v-281l160 108v-90l-160 -108v-224h325v-88l-422 0z" />
<glyph unicode="&#322;" horiz-adv-x="225" d="M67 289l-68 -48v71l68 48v323h90v-279l69 48v-71l-69 -48v-333l-90 0z" />
<glyph unicode="&#323;" horiz-adv-x="778" d="M73 683h85l450 -530v530h97v-683h-87l-448 531v-531h-97zM438 919h87l-137 -170l-52 0z" />
<glyph unicode="&#324;" horiz-adv-x="499" d="M57 451h90v-55q33 32 66.5 47q33.5 15 72.5 15q74 0 116 -42q42 -42 42 -117v-299h-90v276q0 107 -95 107q-35 0 -61 -13.5q-26 -13.5 -51 -44.5l0 -325h-90zM314 685h87l-137 -170l-52 0z" />
<glyph unicode="&#325;" horiz-adv-x="778" d="M73 683h85l450 -530v530h97v-683h-87l-448 531v-531h-97zM375 -162q-20 8 -31.5 21q-11.5 13 -11.5 33q0 25 16.5 41.5q16.5 16.5 39.5 16.5q26 0 44 -20.5q18 -20.5 18 -64.5q0 -26 -9.5 -49q-9.5 -23 -25 -42q-15.5 -19 -36 -32.5q-20.5 -13.5 -42.5 -21.5l-1 18q20 17 29.5 37.5q9.5 20.5 9.5 49.5l0 13z" />
<glyph unicode="&#326;" horiz-adv-x="499" d="M57 451h90v-55q33 32 66.5 47q33.5 15 72.5 15q74 0 116 -42q42 -42 42 -117v-299h-90v276q0 107 -95 107q-35 0 -61 -13.5q-26 -13.5 -51 -44.5l0 -325h-90zM239 -162q-20 8 -31.5 21q-11.5 13 -11.5 33q0 25 16.5 41.5q16.5 16.5 39.5 16.5q26 0 44 -20.5q18 -20.5 18 -64.5q0 -26 -9.5 -49q-9.5 -23 -25 -42q-15.5 -19 -36 -32.5q-20.5 -13.5 -42.5 -21.5l-1 18q20 17 29.5 37.5q9.5 20.5 9.5 49.5l0 13z" />
<glyph unicode="&#327;" horiz-adv-x="778" d="M73 683h85l450 -530v530h97v-683h-87l-448 531v-531h-97zM297 919l88 -119l87 119h52l-96 -170h-87l-96 170z" />
<glyph unicode="&#328;" horiz-adv-x="499" d="M57 451h90v-55q33 32 66.5 47q33.5 15 72.5 15q74 0 116 -42q42 -42 42 -117v-299h-90v276q0 107 -95 107q-35 0 -61 -13.5q-26 -13.5 -51 -44.5l0 -325h-90zM182 685l88 -119l87 119h52l-96 -170h-87l-96 170z" />
<glyph unicode="&#332;" horiz-adv-x="801" d="M36 344q0 69 28 133q28 64 79 114q53 51 118.5 77q65.5 26 138.5 26q74 0 140.5 -26q66.5 -26 117.5 -77q107 -104 107 -253q0 -69 -27 -133q-27 -64 -79 -114q-108 -103 -259 -103q-73 0 -139.5 26.5q-66.5 26.5 -117.5 76.5q-53 51 -80 115.5q-27 64.5 -27 137.5zt0 0zM140 341q0 -53 19.5 -100q19.5 -47 56.5 -84q36 -37 84 -57q48 -20 100 -20q54 0 100.5 19.5q46.5 19.5 84.5 57.5q37 37 56.5 84q19.5 47 19.5 100q0 53 -19.5 99.5q-19.5 46.5 -57.5 84.5q-37 38 -84 57.5q-47 19.5 -100 19.5q-52 0 -99 -20q-47 -20 -85 -57q-37 -36 -56.5 -83.5q-19.5 -47.5 -19.5 -100.5zt0 0zM274 836h252v-61l-252 0z" />
<glyph unicode="&#333;" horiz-adv-x="535" d="M28 226q0 49 18.5 91.5q18.5 42.5 51 74.5q32.5 32 76 50.5q43.5 18.5 94.5 18.5q48 0 91 -18q43 -18 77 -51q35 -35 53 -76.5q18 -41.5 18 -89.5q0 -47 -18.5 -91q-18.5 -44 -52.5 -77q-70 -68 -168 -68q-50 0 -94 18.5q-44 18.5 -76.5 50q-32.5 31.5 -51 74.5q-18.5 43 -18.5 93zt0 0zM122 226q0 -32 11.5 -59.5q11.5 -27.5 31 -47.5q19.5 -20 46 -31.5q26.5 -11.5 56.5 -11.5q30 0 56.5 11.5q26.5 11.5 46 32q19.5 20.5 31 47.5q11.5 27 11.5 59q0 31 -11.5 58q-11.5 27 -31 47.5q-19.5 20.5 -46 32q-26.5 11.5 -56.5 11.5q-30 0 -56.5 -11.5q-26.5 -11.5 -46 -32q-19.5 -20.5 -31 -47.5q-11.5 -27 -11.5 -58zt0 0zM141 622h252v-61l-252 0z" />
<glyph unicode="&#336;" horiz-adv-x="801" d="M36 344q0 69 28 133q28 64 79 114q53 51 118.5 77q65.5 26 138.5 26q74 0 140.5 -26q66.5 -26 117.5 -77q107 -104 107 -253q0 -69 -27 -133q-27 -64 -79 -114q-108 -103 -259 -103q-73 0 -139.5 26.5q-66.5 26.5 -117.5 76.5q-53 51 -80 115.5q-27 64.5 -27 137.5zt0 0zM140 341q0 -53 19.5 -100q19.5 -47 56.5 -84q36 -37 84 -57q48 -20 100 -20q54 0 100.5 19.5q46.5 19.5 84.5 57.5q37 37 56.5 84q19.5 47 19.5 100q0 53 -19.5 99.5q-19.5 46.5 -57.5 84.5q-37 38 -84 57.5q-47 19.5 -100 19.5q-52 0 -99 -20q-47 -20 -85 -57q-37 -36 -56.5 -83.5q-19.5 -47.5 -19.5 -100.5zt0 0zM406 919h77l-108 -170h-41zM542 919h76l-117 -170l-41 0z" />
<glyph unicode="&#337;" horiz-adv-x="535" d="M28 226q0 49 18.5 91.5q18.5 42.5 51 74.5q32.5 32 76 50.5q43.5 18.5 94.5 18.5q48 0 91 -18q43 -18 77 -51q35 -35 53 -76.5q18 -41.5 18 -89.5q0 -47 -18.5 -91q-18.5 -44 -52.5 -77q-70 -68 -168 -68q-50 0 -94 18.5q-44 18.5 -76.5 50q-32.5 31.5 -51 74.5q-18.5 43 -18.5 93zt0 0zM122 226q0 -32 11.5 -59.5q11.5 -27.5 31 -47.5q19.5 -20 46 -31.5q26.5 -11.5 56.5 -11.5q30 0 56.5 11.5q26.5 11.5 46 32q19.5 20.5 31 47.5q11.5 27 11.5 59q0 31 -11.5 58q-11.5 27 -31 47.5q-19.5 20.5 -46 32q-26.5 11.5 -56.5 11.5q-30 0 -56.5 -11.5q-26.5 -11.5 -46 -32q-19.5 -20.5 -31 -47.5q-11.5 -27 -11.5 -58zt0 0zM248 685h77l-108 -170h-41zM384 685h76l-117 -170l-41 0z" />
<glyph unicode="&#338;" horiz-adv-x="985" d="M455 0q-36 0 -70 1q-34 1 -65.5 5.5q-31.5 4.5 -61.5 14q-30 9.5 -58 26.5q-72 43 -112 118.5q-40 75.5 -40 175.5q0 100 39.5 175.5q39.5 75.5 112.5 119.5q28 17 57.5 26.5q29.5 9.5 61 14q31.5 4.5 65.5 5.5q34 1 70 1h471v-87h-315v-207h306v-88h-306v-213h325v-88h-445zM514 597h-43q-68 0 -118.5 -6.5q-50.5 -6.5 -88.5 -27.5q-54 -30 -84 -87q-30 -57 -30 -133q0 -76 30 -133.5q30 -57.5 84 -87.5q38 -21 88.5 -27.5q50.5 -6.5 118.5 -6.5l43 0z" />
<glyph unicode="&#339;" horiz-adv-x="873" d="M747 276q-5 50 -36.5 79.5q-31.5 29.5 -78.5 29.5q-105 0 -125 -109zM837 48q-45 -29 -92.5 -43q-47.5 -14 -100.5 -14q-63 0 -107 21q-44 21 -81 70q-41 -46 -86 -68.5q-45 -22.5 -101 -22.5q-51 0 -95 18.5q-44 18.5 -76.5 50q-32.5 31.5 -51 74.5q-18.5 43 -18.5 92q0 49 18.5 91.5q18.5 42.5 51 74.5q32.5 32 77 50.5q44.5 18.5 95.5 18.5q118 0 184 -89q32 47 75.5 68.5q43.5 21.5 103.5 21.5q97 0 154.5 -62.5q57.5 -62.5 57.5 -177.5v-11h-338q4 -65 42.5 -101q38.5 -36 102.5 -36q43 0 88.5 16.5q45.5 16.5 96.5 48.5zM122 226q0 -32 11.5 -59q11.5 -27 31 -47.5q19.5 -20.5 46 -32q26.5 -11.5 56.5 -11.5q30 0 56.5 12q26.5 12 46 32q19.5 20 31 47.5q11.5 27.5 11.5 58.5q0 31 -11.5 58q-11.5 27 -31 47.5q-19.5 20.5 -46 32q-26.5 11.5 -56.5 11.5q-30 0 -56.5 -11.5q-26.5 -11.5 -46 -32q-19.5 -20.5 -31 -47.5t-11.5 -58z" />
<glyph unicode="&#340;" horiz-adv-x="565" d="M251 387q136 0 136 107q0 58 -33.5 82q-33.5 24 -102.5 24h-81v-213zM72 683h200q106 0 161 -49q55 -49 55 -138q0 -67 -30.5 -108q-30.5 -41 -97.5 -62q23 -12 38.5 -31.5q15.5 -19.5 32.5 -44.5l166 -250h-118l-117 179q-20 30 -37 53.5q-17 23.5 -35.5 39.5q-18.5 16 -40 24.5q-21.5 8.5 -50.5 8.5h-29v-305h-98zM317 919h87l-137 -170l-52 0z" />
<glyph unicode="&#341;" horiz-adv-x="375" d="M58 451h90v-98q34 54 64 80q30 26 69 26q47 0 103 -44l-49 -80q-21 18 -41 27q-20 9 -43 9q-35 0 -63 -29.5q-28 -29.5 -40 -86.5l0 -255h-90zM282 685h87l-137 -170l-52 0z" />
<glyph unicode="&#342;" horiz-adv-x="565" d="M251 387q136 0 136 107q0 58 -33.5 82q-33.5 24 -102.5 24h-81v-213zM72 683h200q106 0 161 -49q55 -49 55 -138q0 -67 -30.5 -108q-30.5 -41 -97.5 -62q23 -12 38.5 -31.5q15.5 -19.5 32.5 -44.5l166 -250h-118l-117 179q-20 30 -37 53.5q-17 23.5 -35.5 39.5q-18.5 16 -40 24.5q-21.5 8.5 -50.5 8.5h-29v-305h-98zM310 -162q-20 8 -31.5 21q-11.5 13 -11.5 33q0 25 16.5 41.5q16.5 16.5 39.5 16.5q26 0 44 -20.5q18 -20.5 18 -64.5q0 -26 -9.5 -49q-9.5 -23 -25 -42q-15.5 -19 -36 -32.5q-20.5 -13.5 -42.5 -21.5l-1 18q20 17 29.5 37.5q9.5 20.5 9.5 49.5l0 13z" />
<glyph unicode="&#343;" horiz-adv-x="375" d="M58 451h90v-98q34 54 64 80q30 26 69 26q47 0 103 -44l-49 -80q-21 18 -41 27q-20 9 -43 9q-35 0 -63 -29.5q-28 -29.5 -40 -86.5l0 -255h-90zM87 -162q-20 8 -31.5 21q-11.5 13 -11.5 33q0 25 16.5 41.5q16.5 16.5 39.5 16.5q26 0 44 -20.5q18 -20.5 18 -64.5q0 -26 -9.5 -49q-9.5 -23 -25 -42q-15.5 -19 -36 -32.5q-20.5 -13.5 -42.5 -21.5l-1 18q20 17 29.5 37.5q9.5 20.5 9.5 49.5l0 13z" />
<glyph unicode="&#344;" horiz-adv-x="565" d="M251 387q136 0 136 107q0 58 -33.5 82q-33.5 24 -102.5 24h-81v-213zM72 683h200q106 0 161 -49q55 -49 55 -138q0 -67 -30.5 -108q-30.5 -41 -97.5 -62q23 -12 38.5 -31.5q15.5 -19.5 32.5 -44.5l166 -250h-118l-117 179q-20 30 -37 53.5q-17 23.5 -35.5 39.5q-18.5 16 -40 24.5q-21.5 8.5 -50.5 8.5h-29v-305h-98zM171 919l88 -119l87 119h52l-96 -170h-87l-96 170z" />
<glyph unicode="&#345;" horiz-adv-x="375" d="M58 451h90v-98q34 54 64 80q30 26 69 26q47 0 103 -44l-49 -80q-21 18 -41 27q-20 9 -43 9q-35 0 -63 -29.5q-28 -29.5 -40 -86.5l0 -255h-90zM156 685l88 -119l87 119h52l-96 -170h-87l-96 170z" />
<glyph unicode="&#346;" horiz-adv-x="461" d="M38 182q45 -51 86.5 -75.5q41.5 -24.5 92.5 -24.5q51 0 80 23.5q29 23.5 29 64.5q0 21 -7.5 37.5q-7.5 16.5 -22 31.5q-14.5 15 -35.5 29.5q-21 14.5 -49 32.5q-43 28 -76 51q-33 23 -55 46.5q-22 23.5 -33 51q-11 27.5 -11 64.5q0 39 14.5 72.5q14.5 33.5 41 57.5q26.5 24 64 38q37.5 14 82.5 14q78 0 155 -47l0 -111q-42 34 -80 51.5q-38 17.5 -79 17.5q-48 0 -76 -23q-28 -23 -28 -58q0 -20 9.5 -36.5q9.5 -16.5 27 -32q17.5 -15.5 42.5 -31.5q25 -16 56 -35q37 -23 67 -44.5q30 -21.5 50 -47q20 -25.5 31 -57q11 -31.5 11 -74.5q0 -38 -14.5 -71q-14.5 -33 -41 -57q-26.5 -24 -64 -38q-37.5 -14 -82.5 -14q-54 0 -98.5 15q-44.5 15 -86.5 50zM315 919h87l-137 -170l-52 0z" />
<glyph unicode="&#347;" horiz-adv-x="376" d="M28 127q43 -29 80.5 -42q37.5 -13 66.5 -13q35 0 54.5 13q19.5 13 19.5 35q0 13 -7.5 22.5q-7.5 9.5 -21.5 18.5q-14 9 -34 18.5q-20 9.5 -44 22.5q-27 14 -47.5 27.5q-20.5 13.5 -34.5 29.5q-14 16 -21 35q-7 19 -7 44q0 56 40 89.5q40 33.5 112 33.5q75 0 142 -37l0 -88q-39 22 -74 33.5q-35 11.5 -67 11.5q-59 0 -59 -38q0 -27 26 -43.5q26 -16.5 77 -41.5q28 -14 50 -27q22 -13 37 -28.5q15 -15.5 23 -34.5q8 -19 8 -46q0 -59 -44 -95q-44 -36 -119 -36q-83 0 -156 40zM263 685h87l-137 -170l-52 0z" />
<glyph unicode="&#348;" horiz-adv-x="461" d="M38 182q45 -51 86.5 -75.5q41.5 -24.5 92.5 -24.5q51 0 80 23.5q29 23.5 29 64.5q0 21 -7.5 37.5q-7.5 16.5 -22 31.5q-14.5 15 -35.5 29.5q-21 14.5 -49 32.5q-43 28 -76 51q-33 23 -55 46.5q-22 23.5 -33 51q-11 27.5 -11 64.5q0 39 14.5 72.5q14.5 33.5 41 57.5q26.5 24 64 38q37.5 14 82.5 14q78 0 155 -47l0 -111q-42 34 -80 51.5q-38 17.5 -79 17.5q-48 0 -76 -23q-28 -23 -28 -58q0 -20 9.5 -36.5q9.5 -16.5 27 -32q17.5 -15.5 42.5 -31.5q25 -16 56 -35q37 -23 67 -44.5q30 -21.5 50 -47q20 -25.5 31 -57q11 -31.5 11 -74.5q0 -38 -14.5 -71q-14.5 -33 -41 -57q-26.5 -24 -64 -38q-37.5 -14 -82.5 -14q-54 0 -98.5 15q-44.5 15 -86.5 50zM193 919h87l96 -170h-52l-87 118l-88 -118l-52 0z" />
<glyph unicode="&#349;" horiz-adv-x="376" d="M28 127q43 -29 80.5 -42q37.5 -13 66.5 -13q35 0 54.5 13q19.5 13 19.5 35q0 13 -7.5 22.5q-7.5 9.5 -21.5 18.5q-14 9 -34 18.5q-20 9.5 -44 22.5q-27 14 -47.5 27.5q-20.5 13.5 -34.5 29.5q-14 16 -21 35q-7 19 -7 44q0 56 40 89.5q40 33.5 112 33.5q75 0 142 -37l0 -88q-39 22 -74 33.5q-35 11.5 -67 11.5q-59 0 -59 -38q0 -27 26 -43.5q26 -16.5 77 -41.5q28 -14 50 -27q22 -13 37 -28.5q15 -15.5 23 -34.5q8 -19 8 -46q0 -59 -44 -95q-44 -36 -119 -36q-83 0 -156 40zM144 685h87l96 -170h-52l-87 118l-88 -118l-52 0z" />
<glyph unicode="&#350;" horiz-adv-x="461" d="M120 -164q78 -18 121 -18q59 0 59 41q0 26 -16.5 37q-16.5 11 -51.5 11q-6 0 -12 0q-6 0 -13 -1l0 83q-49 2 -90 17q-41 15 -79 47l0 129q45 -51 86.5 -75.5q41.5 -24.5 92.5 -24.5q51 0 80 23.5q29 23.5 29 64.5q0 21 -7.5 37.5q-7.5 16.5 -22 31.5q-14.5 15 -35.5 29.5q-21 14.5 -49 32.5q-43 28 -76 51q-33 23 -55 46.5q-22 23.5 -33 51q-11 27.5 -11 64.5q0 39 14.5 72.5q14.5 33.5 41 57.5q26.5 24 64 38q37.5 14 82.5 14q78 0 155 -47l0 -111q-42 34 -80 51.5q-38 17.5 -79 17.5q-48 0 -76 -23q-28 -23 -28 -58q0 -20 9.5 -36.5q9.5 -16.5 27 -32q17.5 -15.5 42.5 -31.5q25 -16 56 -35q37 -23 67 -44.5q30 -21.5 50 -47q20 -25.5 31 -57q11 -31.5 11 -74.5q0 -36 -13 -67.5q-13 -31.5 -37 -55.5q-24 -24 -58 -38.5q-34 -14.5 -75 -17.5l0 -41h11q111 0 111 -86q0 -89 -122 -89q-24 0 -54 5q-30 5 -68 15z" />
<glyph unicode="&#351;" horiz-adv-x="376" d="M76 -164q78 -18 121 -18q59 0 59 41q0 26 -16.5 37q-16.5 11 -51.5 11q-6 0 -12 0q-6 0 -13 -1l0 86q-73 4 -135 39l0 96q43 -29 80.5 -42q37.5 -13 66.5 -13q35 0 54.5 13q19.5 13 19.5 35q0 13 -7.5 22.5q-7.5 9.5 -21.5 18.5q-14 9 -34 18.5q-20 9.5 -44 22.5q-27 14 -47.5 27.5q-20.5 13.5 -34.5 29.5q-14 16 -21 35q-7 19 -7 44q0 56 40 89.5q40 33.5 112 33.5q75 0 142 -37l0 -88q-39 22 -74 33.5q-35 11.5 -67 11.5q-59 0 -59 -38q0 -27 26 -43.5q26 -16.5 77 -41.5q28 -14 50 -27q22 -13 37 -28.5q15 -15.5 23 -34.5q8 -19 8 -46q0 -57 -40 -92q-40 -35 -109 -38l0 -44h11q111 0 111 -86q0 -89 -122 -89q-24 0 -54 5q-30 5 -68 15z" />
<glyph unicode="&#352;" horiz-adv-x="461" d="M38 182q45 -51 86.5 -75.5q41.5 -24.5 92.5 -24.5q51 0 80 23.5q29 23.5 29 64.5q0 21 -7.5 37.5q-7.5 16.5 -22 31.5q-14.5 15 -35.5 29.5q-21 14.5 -49 32.5q-43 28 -76 51q-33 23 -55 46.5q-22 23.5 -33 51q-11 27.5 -11 64.5q0 39 14.5 72.5q14.5 33.5 41 57.5q26.5 24 64 38q37.5 14 82.5 14q78 0 155 -47l0 -111q-42 34 -80 51.5q-38 17.5 -79 17.5q-48 0 -76 -23q-28 -23 -28 -58q0 -20 9.5 -36.5q9.5 -16.5 27 -32q17.5 -15.5 42.5 -31.5q25 -16 56 -35q37 -23 67 -44.5q30 -21.5 50 -47q20 -25.5 31 -57q11 -31.5 11 -74.5q0 -38 -14.5 -71q-14.5 -33 -41 -57q-26.5 -24 -64 -38q-37.5 -14 -82.5 -14q-54 0 -98.5 15q-44.5 15 -86.5 50zM143 919l88 -119l87 119h52l-96 -170h-87l-96 170z" />
<glyph unicode="&#353;" horiz-adv-x="376" d="M28 127q43 -29 80.5 -42q37.5 -13 66.5 -13q35 0 54.5 13q19.5 13 19.5 35q0 13 -7.5 22.5q-7.5 9.5 -21.5 18.5q-14 9 -34 18.5q-20 9.5 -44 22.5q-27 14 -47.5 27.5q-20.5 13.5 -34.5 29.5q-14 16 -21 35q-7 19 -7 44q0 56 40 89.5q40 33.5 112 33.5q75 0 142 -37l0 -88q-39 22 -74 33.5q-35 11.5 -67 11.5q-59 0 -59 -38q0 -27 26 -43.5q26 -16.5 77 -41.5q28 -14 50 -27q22 -13 37 -28.5q15 -15.5 23 -34.5q8 -19 8 -46q0 -59 -44 -95q-44 -36 -119 -36q-83 0 -156 40zM100 685l88 -119l87 119h52l-96 -170h-87l-96 170z" />
<glyph unicode="&#354;" horiz-adv-x="613" d="M258 595h-251v88h599v-88h-251v-595h-33v-52h11q111 0 111 -86q0 -89 -122 -89q-24 0 -54 5q-30 5 -68 15l0 43q78 -18 121 -18q59 0 59 41q0 26 -16.5 37q-16.5 11 -51.5 11q-6 0 -12 0q-6 0 -13 -1l0 94l-29 0z" />
<glyph unicode="&#355;" horiz-adv-x="322" d="M69 -164q78 -18 121 -18q59 0 59 41q0 26 -16.5 37q-16.5 11 -51.5 11q-6 0 -12 0q-6 0 -13 -1l0 91q-50 11 -67.5 50.5q-17.5 39.5 -17.5 111.5v214h-77v9l158 174h10v-105h141v-78h-141v-207q0 -24 2 -41q2 -17 9 -27.5q7 -10.5 20 -15.5q13 -5 35 -5q41 0 78 22l0 -85q-42 -23 -97 -23q-5 0 -9.5 0q-4.5 0 -8.5 1l0 -44h11q111 0 111 -86q0 -89 -122 -89q-24 0 -54 5q-30 5 -68 15z" />
<glyph unicode="&#356;" horiz-adv-x="613" d="M258 595h-251v88h599v-88h-251v-595h-97zM219 919l88 -119l87 119h52l-96 -170h-87l-96 170z" />
<glyph unicode="&#357;" horiz-adv-x="322" d="M306 14q-42 -23 -97 -23q-41 0 -68 10q-27 10 -42.5 30.5q-15.5 20.5 -21.5 52q-6 31.5 -6 75.5v214h-77v9l158 174h10v-105h141v-78h-141v-207q0 -24 2 -41q2 -17 9 -27.5q7 -10.5 20 -15.5q13 -5 35 -5q41 0 78 22l0 -85zM248 587q-20 8 -31.5 21q-11.5 13 -11.5 33q0 25 16.5 39.5q16.5 14.5 39.5 14.5q24 0 42 -17.5q18 -17.5 18 -61.5q0 -26 -9 -48.5q-9 -22.5 -24.5 -40.5q-15.5 -18 -35.5 -31q-20 -13 -42 -21l-1 18q20 17 29.5 34.5q9.5 17.5 9.5 46.5l0 13z" />
<glyph unicode="&#362;" horiz-adv-x="726" d="M166 683v-392q0 -46 4 -80q4 -34 27 -60q60 -71 166 -71q45 0 81 12q36 12 62 34q26 22 40 53q14 31 14 68v436h97v-439q0 -57 -21 -104q-21 -47 -60 -80.5q-39 -33.5 -93 -52.5q-54 -19 -120 -19q-79 0 -141 27.5q-62 27.5 -105 80.5q-17 21 -27 43q-10 22 -14.5 45.5q-4.5 23.5 -5.5 49q-1 25.5 -1 53.5v396zM237 836h252v-61l-252 0z" />
</font>
</defs>
</svg>
